<svg width="48" height="48" viewBox="0 0 48 48" fill="none" xmlns="http://www.w3.org/2000/svg" xmlns:xlink="http://www.w3.org/1999/xlink">
<path d="M14.5,9.328C16.24,6.734 19.246,4 24,4C28.754,4 31.76,6.734 33.5,9.328C34.649,11.07 35.485,13 35.97,15.03L39.04,30.858C39.208,31.727 39.183,32.622 38.965,33.479C38.747,34.336 38.342,35.135 37.779,35.817C37.216,36.5 36.509,37.05 35.709,37.427C34.909,37.804 34.035,38 33.15,38L14.85,38C13.965,38 13.092,37.804 12.291,37.427C11.491,37.05 10.784,36.5 10.221,35.817C9.659,35.135 9.254,34.336 9.035,33.479C8.817,32.622 8.792,31.727 8.96,30.858L12.03,15.03C12.515,12.999 13.351,11.071 14.5,9.328Z" clip-rule="evenodd" fill-rule="evenodd" fill="#000000"/>
<path d="M17.028,40C17.532,40.96 18.304,41.966 19.474,42.734C20.694,43.534 22.226,44 24.094,44C25.96,44 27.494,43.534 28.714,42.734C29.884,41.966 30.654,40.962 31.16,40L17.028,40Z" clip-rule="evenodd" fill-rule="evenodd" fill="#000000"/>
<path d="M34.586,4.586C34.211,4.961 34,5.47 34,6C34,6.53 34.211,7.039 34.586,7.414C36.238,9.066 37.11,10.686 38.06,14.486C38.192,14.997 38.521,15.436 38.974,15.705C39.428,15.975 39.97,16.055 40.482,15.926C40.995,15.798 41.435,15.472 41.708,15.02C41.981,14.569 42.065,14.027 41.94,13.514C40.89,9.314 39.76,6.934 37.414,4.586C37.039,4.211 36.53,4 36,4C35.47,4 34.961,4.211 34.586,4.586ZM13.414,4.586C13.789,4.961 14,5.47 14,6C14,6.53 13.789,7.039 13.414,7.414C11.762,9.066 10.89,10.686 9.94,14.486C9.808,14.997 9.479,15.436 9.025,15.705C8.572,15.975 8.03,16.055 7.517,15.926C7.005,15.798 6.565,15.472 6.292,15.02C6.019,14.569 5.935,14.027 6.06,13.514C7.11,9.314 8.24,6.934 10.586,4.586C10.961,4.211 11.47,4 12,4C12.53,4 13.039,4.211 13.414,4.586Z" clip-rule="evenodd" fill-rule="evenodd" fill="#000000"/>
<circle cx="10" cy="28" r="8" fill="#FF0000"/>
</svg>
