<svg width="34" height="32" viewBox="0 0 34 32" fill="none" xmlns="http://www.w3.org/2000/svg" xmlns:xlink="http://www.w3.org/1999/xlink">
<path d="M10.429,5.763C11.562,4.074 13.52,2.293 16.617,2.293C19.714,2.293 21.672,4.074 22.805,5.763C23.553,6.898 24.098,8.155 24.414,9.478L26.413,19.787C26.523,20.353 26.506,20.936 26.364,21.495C26.222,22.053 25.958,22.573 25.592,23.018C25.225,23.462 24.765,23.82 24.244,24.066C23.722,24.312 23.153,24.439 22.577,24.439L10.657,24.439C10.081,24.439 9.512,24.312 8.99,24.066C8.469,23.82 8.009,23.462 7.642,23.018C7.275,22.573 7.012,22.053 6.869,21.495C6.727,20.936 6.711,20.353 6.82,19.787L8.82,9.478C9.136,8.155 9.68,6.899 10.429,5.763Z" clip-rule="evenodd" fill-rule="evenodd" fill="#000000"/>
<path d="M12.076,25.742C12.404,26.367 12.907,27.023 13.669,27.523C14.464,28.044 15.462,28.348 16.679,28.348C17.894,28.348 18.893,28.044 19.688,27.523C20.45,27.023 20.952,26.369 21.281,25.742L12.076,25.742Z" clip-rule="evenodd" fill-rule="evenodd" fill="#000000"/>
<path d="M23.513,2.675C23.269,2.919 23.131,3.25 23.131,3.596C23.131,3.941 23.269,4.272 23.513,4.517C24.589,5.593 25.157,6.648 25.776,9.123C25.862,9.456 26.076,9.742 26.371,9.917C26.667,10.093 27.02,10.145 27.354,10.061C27.687,9.978 27.974,9.766 28.152,9.471C28.33,9.177 28.384,8.824 28.303,8.49C27.619,5.754 26.883,4.204 25.355,2.675C25.111,2.43 24.779,2.293 24.434,2.293C24.088,2.293 23.757,2.43 23.513,2.675ZM9.722,2.675C9.966,2.919 10.104,3.25 10.104,3.596C10.104,3.941 9.966,4.272 9.722,4.517C8.646,5.593 8.078,6.648 7.459,9.123C7.373,9.456 7.159,9.742 6.864,9.917C6.568,10.093 6.215,10.145 5.881,10.061C5.548,9.978 5.261,9.766 5.083,9.471C4.905,9.177 4.851,8.824 4.932,8.49C5.616,5.754 6.352,4.204 7.88,2.675C8.124,2.43 8.456,2.293 8.801,2.293C9.147,2.293 9.478,2.43 9.722,2.675Z" clip-rule="evenodd" fill-rule="evenodd" fill="#000000"/>
<circle cx="7.498" cy="17.926" r="5.211" fill="#FF0000"/>
</svg>
