<svg width="48" height="48" viewBox="0 0 48 48" fill="none" xmlns="http://www.w3.org/2000/svg" xmlns:xlink="http://www.w3.org/1999/xlink">
<path d="M44,25.868L44,30.132C44,31.904 44,33.432 43.836,34.656C43.66,35.966 43.262,37.224 42.242,38.242C41.222,39.262 39.966,39.66 38.656,39.836C37.432,40 35.904,40 34.132,40L21.868,40C20.096,40 18.568,40 17.344,39.836C16.034,39.66 14.776,39.262 13.758,38.242C12.738,37.222 12.34,35.966 12.164,34.656C12,33.432 12,31.904 12,30.132L12,25.868C12,24.096 12,22.568 12.164,21.344C12.34,20.034 12.738,18.776 13.758,17.758C14.778,16.738 16.034,16.34 17.344,16.164C18.568,16 20.096,16 21.868,16L34.132,16C35.904,16 37.432,16 38.656,16.164C39.966,16.34 41.224,16.738 42.242,17.758C43.262,18.778 43.66,20.034 43.836,21.344C44,22.568 44,24.096 44,25.868ZM22,28C22,27.212 22.155,26.432 22.457,25.704C22.758,24.976 23.2,24.315 23.757,23.757C24.315,23.2 24.976,22.758 25.704,22.457C26.432,22.155 27.212,22 28,22C28.788,22 29.568,22.155 30.296,22.457C31.024,22.758 31.685,23.2 32.243,23.757C32.8,24.315 33.242,24.976 33.543,25.704C33.845,26.432 34,27.212 34,28C34,29.591 33.368,31.117 32.243,32.243C31.117,33.368 29.591,34 28,34C26.409,34 24.883,33.368 23.757,32.243C22.632,31.117 22,29.591 22,28Z" clip-rule="evenodd" fill-rule="evenodd" fill="#FFFFFF" fill-opacity="0.5"/>
<path d="M35.994,14.008C35.42,14 34.834,14 34.238,14L21.76,14C20.074,14 18.434,14 17.076,14.182C15.544,14.388 13.796,14.89 12.342,16.342C10.888,17.796 10.386,19.546 10.182,21.078C10,22.436 10,24.074 10,25.762L10,30.238C10,30.824 10,31.404 10.008,31.968C9.883,31.962 9.757,31.955 9.632,31.946C8.886,31.886 8.142,31.76 7.418,31.416C6.176,30.824 5.176,29.822 4.584,28.58C4.24,27.86 4.112,27.114 4.054,26.368C4.005,25.516 3.987,24.662 4,23.808L4,17.868C4,16.096 4,14.568 4.164,13.344C4.34,12.034 4.738,10.776 5.758,9.758C6.778,8.738 8.034,8.34 9.344,8.164C10.568,8 12.096,8 13.868,8L29.078,8C29.922,8 30.648,8 31.296,8.14C32.412,8.387 33.435,8.948 34.243,9.756C35.051,10.565 35.611,11.588 35.858,12.704C35.948,13.104 35.98,13.536 35.994,14.008Z" clip-rule="evenodd" fill-rule="evenodd" fill="#FFFFFF" fill-opacity="0.5"/>
</svg>
