<svg width="32" height="32" viewBox="0 0 32 32" fill="none" xmlns="http://www.w3.org/2000/svg" xmlns:xlink="http://www.w3.org/1999/xlink">
<path d="M28.979,17.561L28.979,20.338C28.979,21.492 28.979,22.487 28.872,23.285C28.757,24.138 28.498,24.957 27.834,25.621C27.169,26.285 26.351,26.544 25.498,26.659C24.7,26.766 23.705,26.766 22.551,26.766L14.563,26.766C13.408,26.766 12.413,26.766 11.616,26.659C10.763,26.544 9.943,26.285 9.28,25.621C8.616,24.956 8.356,24.138 8.242,23.285C8.135,22.487 8.135,21.492 8.135,20.338L8.135,17.561C8.135,16.406 8.135,15.411 8.242,14.614C8.356,13.76 8.616,12.941 9.28,12.278C9.944,11.614 10.763,11.354 11.616,11.24C12.413,11.133 13.408,11.133 14.563,11.133L22.551,11.133C23.705,11.133 24.7,11.133 25.498,11.24C26.351,11.354 27.17,11.614 27.834,12.278C28.498,12.942 28.757,13.76 28.872,14.614C28.979,15.411 28.979,16.406 28.979,17.561ZM14.649,18.949C14.649,18.436 14.75,17.928 14.946,17.454C15.142,16.979 15.43,16.549 15.793,16.186C16.156,15.823 16.587,15.535 17.061,15.339C17.535,15.142 18.044,15.041 18.557,15.041C19.07,15.041 19.578,15.142 20.052,15.339C20.527,15.535 20.957,15.823 21.32,16.186C21.683,16.549 21.971,16.979 22.167,17.454C22.364,17.928 22.465,18.436 22.465,18.949C22.465,19.986 22.053,20.98 21.32,21.713C20.587,22.446 19.593,22.857 18.557,22.857C17.52,22.857 16.526,22.446 15.793,21.713C15.06,20.98 14.649,19.986 14.649,18.949Z" clip-rule="evenodd" fill-rule="evenodd" fill="#FFFFFF" fill-opacity="0.5"/>
<path d="M23.764,9.835C23.39,9.83 23.008,9.83 22.62,9.83L14.492,9.83C13.394,9.83 12.326,9.83 11.441,9.949C10.443,10.083 9.305,10.41 8.358,11.356C7.411,12.303 7.084,13.443 6.951,14.44C6.832,15.325 6.832,16.392 6.832,17.491L6.832,20.407C6.832,20.789 6.832,21.166 6.837,21.534C6.756,21.53 6.674,21.525 6.592,21.52C6.106,21.48 5.622,21.398 5.15,21.174C4.341,20.788 3.69,20.136 3.304,19.327C3.08,18.858 2.997,18.372 2.959,17.886C2.927,17.331 2.916,16.775 2.924,16.219L2.924,12.35C2.924,11.195 2.924,10.2 3.031,9.403C3.145,8.549 3.405,7.73 4.069,7.067C4.733,6.403 5.552,6.143 6.405,6.029C7.202,5.922 8.197,5.922 9.352,5.922L19.259,5.922C19.809,5.922 20.282,5.922 20.704,6.013C21.431,6.174 22.097,6.539 22.623,7.066C23.15,7.593 23.515,8.259 23.675,8.986C23.734,9.246 23.755,9.528 23.764,9.835Z" clip-rule="evenodd" fill-rule="evenodd" fill="#FFFFFF" fill-opacity="0.5"/>
</svg>
