<svg width="186" height="146" viewBox="0 0 186 146" fill="none" xmlns="http://www.w3.org/2000/svg" xmlns:xlink="http://www.w3.org/1999/xlink">
<g style="mix-blend-mode:overlay">
<path d="M21.969,91.11L21.969,22.383C21.969,21.943 21.969,21.664 22.112,20.493C22.256,19.322 23.11,19.346 23.739,19.346C24.368,19.346 25.99,19.293 30.087,19.346C34.185,19.399 79.92,19.304 83.543,19.346C87.167,19.387 157.571,19.346 160.764,19.346C163.319,19.346 163.791,21.28 163.707,22.247C163.67,44.692 163.595,90.088 163.595,92.118C163.595,94.655 159.945,95.317 158.487,95.303C157.029,95.289 145.716,95.002 143.873,95.002C142.03,95.002 82.845,94.944 81.999,94.925C81.153,94.905 27.989,95.089 25.886,95.089C23.782,95.089 23.457,94.872 22.665,94.156C22.032,93.584 21.937,91.887 21.969,91.11Z" transform="rotate(-1.119 92.84 57.312)" fill="#925FE2"/>
</g>
<g style="mix-blend-mode:overlay">
<path d="M5.809,8.941L5.928,124.143C4.294,124.1 1.026,124.684 1.026,127.365C1.026,130.045 0.947,134.812 0.907,136.86C0.821,137.377 0.979,138.57 2.301,139.215C3.622,139.859 8.525,142.611 10.811,143.907C11.532,144.432 13.542,145.482 15.815,145.482C16.713,145.482 32.131,145.527 52.85,145.587C97.68,145.716 167.324,145.917 168.384,145.893C168.674,145.887 168.984,145.894 169.31,145.901C170.724,145.931 172.439,145.969 174.158,144.973C175.433,144.234 177.46,142.918 179.054,141.884C180.104,141.203 180.966,140.643 181.302,140.45C181.503,140.335 181.705,140.217 181.904,140.101C182.541,139.729 183.145,139.377 183.579,139.187L183.625,139.167C184.21,138.911 185.342,138.417 185.342,136.646C185.342,135.191 185.212,130.079 185.147,127.705C184.847,126.483 183.509,124.04 180.566,124.04C179.65,124.04 179.164,123.721 179.164,122.957C179.164,122.193 179.319,113.194 179.351,112.218C179.384,111.242 179.566,102.659 179.58,100.577C179.585,99.873 179.626,97.156 179.677,93.738C179.778,87.032 179.919,77.633 179.907,75.466C179.889,72.195 179.871,50.915 179.907,48.444C179.943,45.973 180.049,28.177 180.049,25.742C180.049,23.306 179.8,12.142 179.747,10.079C179.694,8.017 178.903,0.682 170.304,0.682C163.425,0.682 135.882,0.617 122.971,0.584L21.93,0.584C20.219,0.566 16.369,0.54 14.663,0.584C12.529,0.639 10.449,0.941 8.529,3.128C6.609,5.315 5.809,6.453 5.809,8.941ZM22.112,22.382L22.112,91.108C22.08,91.885 22.175,93.582 22.808,94.154C23.6,94.87 23.925,95.087 26.028,95.087C26.773,95.087 33.923,95.064 42.885,95.035C59.228,94.982 81.595,94.91 82.142,94.923C82.988,94.942 142.173,95 144.016,95C145.114,95 149.571,95.102 153.304,95.187C155.839,95.245 158.04,95.295 158.63,95.301C160.088,95.315 163.738,94.653 163.738,92.116C163.738,90.086 163.813,44.69 163.85,22.245C163.933,21.278 163.461,19.344 160.907,19.344C160.403,19.344 158.228,19.345 154.906,19.346C137.168,19.355 86.738,19.379 83.686,19.344C81.98,19.324 70.942,19.335 59.309,19.346C46.23,19.358 32.398,19.372 30.23,19.344C27.032,19.302 25.341,19.325 24.455,19.338C24.205,19.341 24.02,19.344 23.882,19.344C23.869,19.344 23.857,19.344 23.844,19.344C23.22,19.343 22.396,19.343 22.255,20.491C22.112,21.662 22.112,21.941 22.112,22.382Z" clip-rule="evenodd" fill-rule="evenodd" transform="rotate(-1.119 93.115 73.236)" fill="#925FE2"/>
</g>
</svg>
