<svg width="122" height="96" viewBox="0 0 122 96" fill="none" xmlns="http://www.w3.org/2000/svg" xmlns:xlink="http://www.w3.org/1999/xlink">
<g style="mix-blend-mode:overlay">
<path d="M14.116,58.469L14.116,13.703C14.116,13.416 14.116,13.234 14.21,12.471C14.303,11.708 14.859,11.724 15.269,11.724C15.679,11.724 16.735,11.689 19.404,11.724C22.073,11.759 51.863,11.697 54.224,11.724C56.584,11.751 102.443,11.724 104.523,11.724C106.187,11.724 106.494,12.984 106.44,13.614C106.415,28.234 106.367,57.803 106.367,59.125C106.367,60.778 103.989,61.209 103.039,61.2C102.09,61.191 94.721,61.004 93.52,61.004C92.32,61.004 53.769,60.967 53.218,60.954C52.666,60.941 18.037,61.06 16.667,61.06C15.297,61.06 15.085,60.919 14.57,60.453C14.157,60.08 14.095,58.975 14.116,58.469Z" transform="rotate(-1.119 60.279 36.454)" fill="#925FE2"/>
</g>
<g style="mix-blend-mode:overlay">
<path d="M3.591,4.947L3.668,79.985C2.604,79.957 0.475,80.338 0.475,82.084C0.475,83.83 0.424,86.935 0.398,88.269C0.342,88.606 0.445,89.383 1.305,89.803C2.166,90.222 5.36,92.015 6.849,92.859C7.319,93.201 8.628,93.885 10.108,93.885C10.693,93.885 20.736,93.914 34.232,93.953C63.432,94.037 108.797,94.168 109.487,94.153C109.676,94.149 109.878,94.153 110.09,94.158C111.011,94.178 112.128,94.202 113.248,93.553C114.078,93.072 115.398,92.215 116.437,91.541C117.12,91.098 117.682,90.733 117.901,90.608C118.032,90.532 118.164,90.456 118.293,90.38C118.708,90.138 119.101,89.909 119.384,89.785L119.414,89.771C119.795,89.605 120.533,89.283 120.533,88.13C120.533,87.182 120.448,83.852 120.406,82.306C120.21,81.51 119.339,79.918 117.422,79.918C116.825,79.918 116.508,79.71 116.508,79.213C116.508,78.716 116.609,72.853 116.63,72.218C116.652,71.582 116.771,65.992 116.78,64.635C116.783,64.177 116.809,62.407 116.843,60.181C116.908,55.813 117,49.69 116.992,48.279C116.981,46.148 116.969,32.287 116.992,30.678C117.016,29.068 117.085,17.477 117.085,15.89C117.085,14.304 116.923,7.032 116.888,5.688C116.853,4.345 116.339,-0.433 110.738,-0.433C106.257,-0.433 88.316,-0.475 79.906,-0.497L14.091,-0.497C12.977,-0.509 10.47,-0.525 9.358,-0.497C7.968,-0.461 6.613,-0.264 5.363,1.161C4.112,2.585 3.591,3.326 3.591,4.947ZM14.21,13.702L14.21,58.468C14.189,58.974 14.251,60.079 14.663,60.452C15.179,60.918 15.391,61.059 16.761,61.059C17.246,61.059 21.903,61.044 27.741,61.025C38.386,60.991 52.955,60.944 53.311,60.952C53.863,60.965 92.413,61.003 93.614,61.003C94.329,61.003 97.232,61.069 99.664,61.125C101.315,61.162 102.749,61.195 103.133,61.199C104.083,61.208 106.461,60.777 106.461,59.124C106.461,57.802 106.509,28.232 106.533,13.613C106.588,12.983 106.28,11.723 104.616,11.723C104.288,11.723 102.871,11.723 100.708,11.724C89.153,11.73 56.305,11.746 54.317,11.723C53.206,11.71 46.016,11.717 38.439,11.724C29.919,11.732 20.91,11.741 19.498,11.723C17.414,11.696 16.314,11.711 15.736,11.719C15.574,11.721 15.453,11.723 15.363,11.723C15.355,11.723 15.347,11.723 15.338,11.723C14.931,11.722 14.395,11.722 14.303,12.47C14.21,13.233 14.21,13.415 14.21,13.702Z" clip-rule="evenodd" fill-rule="evenodd" transform="rotate(-1.119 60.459 46.826)" fill="#925FE2"/>
</g>
</svg>
