<svg width="32" height="32" viewBox="0 0 32 32" fill="none" xmlns="http://www.w3.org/2000/svg" xmlns:xlink="http://www.w3.org/1999/xlink">
<path d="M6.832,2.504C5.796,2.504 4.801,2.916 4.069,3.649C3.336,4.382 2.924,5.376 2.924,6.412L2.924,24.65C2.924,25.687 3.336,26.681 4.069,27.414C4.801,28.147 5.796,28.559 6.832,28.559L22.465,28.559C23.501,28.559 24.495,28.147 25.228,27.414C25.961,26.681 26.373,25.687 26.373,24.65L26.373,6.412C26.373,5.376 25.961,4.382 25.228,3.649C24.495,2.916 23.501,2.504 22.465,2.504L6.832,2.504ZM14.648,10.32C13.266,10.32 11.941,10.869 10.964,11.847C9.987,12.824 9.438,14.149 9.438,15.531C9.438,16.913 9.987,18.239 10.964,19.216C11.941,20.193 13.266,20.742 14.648,20.742C16.03,20.742 17.356,20.193 18.333,19.216C19.31,18.239 19.859,16.913 19.859,15.531C19.859,14.149 19.31,12.824 18.333,11.847C17.356,10.869 16.03,10.32 14.648,10.32ZM11.191,25.539C11.695,24.998 12.595,24.65 14.648,24.65C16.752,24.65 17.645,24.99 18.14,25.53C18.376,25.771 18.697,25.91 19.035,25.919C19.372,25.928 19.7,25.806 19.949,25.578C20.198,25.35 20.349,25.034 20.37,24.697C20.39,24.36 20.279,24.028 20.06,23.771C18.766,22.358 16.853,22.045 14.648,22.045C12.459,22.045 10.573,22.38 9.285,23.762C9.168,23.887 9.078,24.034 9.018,24.194C8.958,24.355 8.93,24.525 8.936,24.696C8.942,24.867 8.982,25.035 9.053,25.191C9.123,25.347 9.224,25.487 9.35,25.603C9.475,25.72 9.622,25.811 9.782,25.871C9.942,25.931 10.113,25.959 10.284,25.953C10.455,25.947 10.623,25.907 10.778,25.836C10.934,25.765 11.074,25.664 11.191,25.539Z" clip-rule="evenodd" fill-rule="evenodd" fill="#FFFFFF" fill-opacity="0.5"/>
<path d="M12.043,15.531C12.043,14.84 12.317,14.178 12.806,13.689C13.295,13.2 13.957,12.926 14.648,12.926C15.339,12.926 16.002,13.2 16.491,13.689C16.979,14.178 17.254,14.84 17.254,15.531C17.254,16.222 16.979,16.885 16.491,17.374C16.002,17.862 15.339,18.137 14.648,18.137C13.957,18.137 13.295,17.862 12.806,17.374C12.317,16.885 12.043,16.222 12.043,15.531ZM25.912,28.559L26.373,28.559C27.41,28.559 28.404,28.147 29.137,27.414C29.869,26.681 30.281,25.687 30.281,24.65L30.281,6.412C30.281,5.376 29.869,4.382 29.137,3.649C28.404,2.916 27.41,2.504 26.373,2.504L25.912,2.504C26.467,2.992 26.911,3.594 27.216,4.268C27.52,4.942 27.677,5.673 27.676,6.412L27.676,24.65C27.677,25.39 27.52,26.121 27.216,26.795C26.911,27.469 26.467,28.07 25.912,28.559Z" clip-rule="evenodd" fill-rule="evenodd" fill="#FFFFFF" fill-opacity="0.5"/>
</svg>
