<svg width="48" height="48" viewBox="0 0 48 48" fill="none" xmlns="http://www.w3.org/2000/svg" xmlns:xlink="http://www.w3.org/1999/xlink">
<path d="M10,4C8.409,4 6.883,4.632 5.757,5.757C4.632,6.883 4,8.409 4,10L4,38C4,39.591 4.632,41.117 5.757,42.243C6.883,43.368 8.409,44 10,44L34,44C35.591,44 37.117,43.368 38.243,42.243C39.368,41.117 40,39.591 40,38L40,10C40,8.409 39.368,6.883 38.243,5.757C37.117,4.632 35.591,4 34,4L10,4ZM22,16C19.878,16 17.843,16.843 16.343,18.343C14.843,19.843 14,21.878 14,24C14,26.122 14.843,28.157 16.343,29.657C17.843,31.157 19.878,32 22,32C24.122,32 26.157,31.157 27.657,29.657C29.157,28.157 30,26.122 30,24C30,21.878 29.157,19.843 27.657,18.343C26.157,16.843 24.122,16 22,16ZM16.692,39.364C17.466,38.534 18.848,38 22,38C25.23,38 26.6,38.522 27.36,39.35C27.723,39.72 28.216,39.934 28.734,39.948C29.252,39.962 29.756,39.774 30.138,39.424C30.52,39.074 30.752,38.589 30.783,38.071C30.815,37.554 30.645,37.044 30.308,36.65C28.322,34.48 25.384,34 22,34C18.638,34 15.744,34.514 13.766,36.636C13.587,36.828 13.447,37.054 13.355,37.3C13.263,37.546 13.221,37.807 13.23,38.07C13.239,38.333 13.3,38.591 13.409,38.83C13.518,39.069 13.673,39.284 13.865,39.463C14.057,39.642 14.283,39.782 14.529,39.874C14.775,39.966 15.036,40.008 15.299,39.999C15.562,39.99 15.82,39.929 16.059,39.82C16.298,39.711 16.513,39.556 16.692,39.364Z" clip-rule="evenodd" fill-rule="evenodd" fill="#FFFFFF" fill-opacity="0.5"/>
<path d="M18,24C18,22.939 18.421,21.922 19.172,21.172C19.922,20.421 20.939,20 22,20C23.061,20 24.078,20.421 24.828,21.172C25.579,21.922 26,22.939 26,24C26,25.061 25.579,26.078 24.828,26.828C24.078,27.579 23.061,28 22,28C20.939,28 19.922,27.579 19.172,26.828C18.421,26.078 18,25.061 18,24ZM39.292,44L40,44C41.591,44 43.117,43.368 44.243,42.243C45.368,41.117 46,39.591 46,38L46,10C46,8.409 45.368,6.883 44.243,5.757C43.117,4.632 41.591,4 40,4L39.292,4C40.144,4.75 40.827,5.673 41.294,6.708C41.76,7.742 42.001,8.865 42,10L42,38C42.001,39.135 41.76,40.258 41.294,41.292C40.827,42.327 40.144,43.25 39.292,44Z" clip-rule="evenodd" fill-rule="evenodd" fill="#FFFFFF" fill-opacity="0.5"/>
</svg>
