<svg width="178" height="186" viewBox="0 0 178 186" fill="none" xmlns="http://www.w3.org/2000/svg" xmlns:xlink="http://www.w3.org/1999/xlink">
<path d="M178,93C178,144.362 138.153,186 89,186C39.847,186 0,144.362 0,93C0,41.638 39.847,0 89,0C138.153,0 178,41.638 178,93Z" fill="#D9D9D9"/>
<path d="M178,93C178,144.362 138.153,186 89,186C39.847,186 0,144.362 0,93C0,41.638 39.847,0 89,0C138.153,0 178,41.638 178,93Z" fill="url(#pattern_1_36_3)"/>
<path d="M178,93C178,144.362 138.153,186 89,186C39.847,186 0,144.362 0,93C0,41.638 39.847,0 89,0C138.153,0 178,41.638 178,93Z" stroke="#925FE2" stroke-width="4" stroke-miterlimit="3.999327"/>
</svg>
