<svg width="170" height="120" viewBox="0 0 170 120" fill="none" xmlns="http://www.w3.org/2000/svg" xmlns:xlink="http://www.w3.org/1999/xlink">
<g filter="url(#filter32_748)">
<path d="M89.212,98.253C119.057,105.402 136.597,104.655 168.859,98.253L168.859,112.908C168.859,113.651 168.33,114.297 167.602,114.452C136.71,121.03 119.426,121.133 90.442,114.467C89.727,114.303 89.212,113.663 89.212,112.93L89.212,98.253Z" fill="url(#pf_0_32_749)" stroke="url(#ps_0_32_749)" stroke-width="0.132" stroke-miterlimit="3.999327"/>
<g filter="url(#filter32_750)">
<path d="M168.859,97.872C168.859,101.888 151.03,105.144 129.036,105.144C107.041,105.144 89.212,101.888 89.212,97.872C89.212,93.856 107.041,90.6 129.036,90.6C151.03,90.6 168.859,93.856 168.859,97.872Z" fill="url(#pf_0_32_750)" stroke="#FFFFFF" stroke-opacity="0.2" stroke-width="0.132" stroke-miterlimit="3.999327"/>
</g>
</g>
<g filter="url(#filter32_751)">
<path d="M-0.859,98.253C28.985,105.402 46.525,104.655 78.788,98.253L78.788,112.908C78.788,113.651 78.259,114.297 77.531,114.452C46.639,121.03 29.355,121.133 0.371,114.467C-0.345,114.303 -0.859,113.663 -0.859,112.93L-0.859,98.253Z" fill="url(#pf_0_32_752)" stroke="url(#ps_0_32_752)" stroke-width="0.132" stroke-miterlimit="3.999327"/>
<g filter="url(#filter32_753)">
<path d="M78.788,97.872C78.788,101.888 60.958,105.144 38.964,105.144C16.97,105.144 -0.859,101.888 -0.859,97.872C-0.859,93.856 16.97,90.6 38.964,90.6C60.958,90.6 78.788,93.856 78.788,97.872Z" fill="url(#pf_0_32_753)" stroke="#FFFFFF" stroke-opacity="0.2" stroke-width="0.132" stroke-miterlimit="3.999327"/>
</g>
</g>
<g filter="url(#filter32_754)">
<path d="M89.212,75.224C119.057,82.374 136.597,81.627 168.859,75.224L168.859,89.879C168.859,90.623 168.33,91.268 167.602,91.423C136.71,98.001 119.426,98.104 90.442,91.439C89.727,91.274 89.212,90.635 89.212,89.901L89.212,75.224Z" fill="url(#pf_0_32_755)" stroke="url(#ps_0_32_755)" stroke-width="0.132" stroke-miterlimit="3.999327"/>
<g filter="url(#filter32_756)">
<path d="M168.859,74.843C168.859,78.86 151.03,82.116 129.036,82.116C107.041,82.116 89.212,78.86 89.212,74.843C89.212,70.827 107.041,67.571 129.036,67.571C151.03,67.571 168.859,70.827 168.859,74.843Z" fill="url(#pf_0_32_756)" stroke="#FFFFFF" stroke-opacity="0.2" stroke-width="0.132" stroke-miterlimit="3.999327"/>
</g>
</g>
<g filter="url(#filter32_757)">
<path d="M-0.859,75.224C28.985,82.374 46.525,81.627 78.788,75.224L78.788,89.879C78.788,90.623 78.259,91.268 77.531,91.423C46.639,98.001 29.355,98.104 0.371,91.439C-0.345,91.274 -0.859,90.635 -0.859,89.901L-0.859,75.224Z" fill="#925FE2" stroke="url(#ps_0_32_758)" stroke-width="0.132" stroke-miterlimit="3.999327"/>
<g filter="url(#filter32_759)">
<path d="M78.788,74.843C78.788,78.86 60.958,82.116 38.964,82.116C16.97,82.116 -0.859,78.86 -0.859,74.843C-0.859,70.827 16.97,67.571 38.964,67.571C60.958,67.571 78.788,70.827 78.788,74.843Z" fill="#925FE2" stroke="#E2D4F7" stroke-width="0.132" stroke-miterlimit="3.999327"/>
</g>
<g filter="url(#filter32_760)">
<path d="M60.92,75.138C60.92,76.046 51.346,76.782 39.536,76.782C27.726,76.782 18.152,76.046 18.152,75.138C18.152,74.229 27.726,73.493 39.536,73.493C51.346,73.493 60.92,74.229 60.92,75.138Z" fill="#E2D4F7"/>
</g>
</g>
<g filter="url(#filter32_761)">
<path d="M89.177,52.265C119.022,59.414 136.562,58.667 168.825,52.265L168.825,66.92C168.825,67.664 168.295,68.309 167.568,68.464C136.676,75.042 119.391,75.145 90.407,68.48C89.692,68.315 89.177,67.676 89.177,66.942L89.177,52.265Z" fill="url(#pf_0_32_762)" stroke="url(#ps_0_32_762)" stroke-width="0.132" stroke-miterlimit="3.999327"/>
<g filter="url(#filter32_763)">
<path d="M168.825,51.884C168.825,55.9 150.995,59.156 129.001,59.156C107.007,59.156 89.177,55.9 89.177,51.884C89.177,47.868 107.007,44.612 129.001,44.612C150.995,44.612 168.825,47.868 168.825,51.884Z" fill="url(#pf_0_32_763)" stroke="#FFFFFF" stroke-opacity="0.2" stroke-width="0.132" stroke-miterlimit="3.999327"/>
</g>
</g>
<g filter="url(#filter32_764)">
<path d="M89.177,29.375C119.022,36.524 136.562,35.777 168.825,29.375L168.825,44.03C168.825,44.774 168.295,45.419 167.568,45.574C136.676,52.152 119.391,52.255 90.407,45.59C89.692,45.425 89.177,44.786 89.177,44.052L89.177,29.375Z" fill="url(#pf_0_32_765)" stroke="url(#ps_0_32_765)" stroke-width="0.132" stroke-miterlimit="3.999327"/>
<g filter="url(#filter32_766)">
<path d="M168.825,28.994C168.825,33.01 150.995,36.266 129.001,36.266C107.007,36.266 89.177,33.01 89.177,28.994C89.177,24.978 107.007,21.722 129.001,21.722C150.995,21.722 168.825,24.978 168.825,28.994Z" fill="url(#pf_0_32_766)" stroke="#FFFFFF" stroke-opacity="0.2" stroke-width="0.132" stroke-miterlimit="3.999327"/>
</g>
</g>
<g filter="url(#filter32_767)">
<path d="M78,8.227C107.845,15.376 125.385,14.629 157.648,8.227L157.648,22.882C157.648,23.626 157.118,24.271 156.391,24.426C125.499,31.004 108.214,31.107 79.23,24.442C78.515,24.277 78,23.638 78,22.904L78,8.227Z" fill="url(#pf_0_32_768)" stroke="url(#ps_0_32_768)" stroke-width="0.132" stroke-miterlimit="3.999327"/>
<g filter="url(#filter32_769)">
<path d="M157.648,7.846C157.648,11.862 139.818,15.118 117.824,15.118C95.83,15.118 78,11.862 78,7.846C78,3.83 95.83,0.574 117.824,0.574C139.818,0.574 157.648,3.83 157.648,7.846Z" fill="url(#pf_0_32_769)" stroke="#FFFFFF" stroke-opacity="0.2" stroke-width="0.132" stroke-miterlimit="3.999327"/>
</g>
</g>
<defs>
<filter id="filter32_748" x="86.842609" y="88.230663" width="44.561936" height="19.151267" filterUnits="userSpaceOnUse" color-interpolation-filters="sRGB">
<feFlood flood-opacity="0" result="BackgroundImageFix"/>
<feColorMatrix in="SourceAlpha" type="matrix" values="0 0 0 0 0 0 0 0 0 0 0 0 0 0 0 0 0 0 127 0" result="hardAlpha"/>
<feMorphology radius="0" operator="dilate" in="SourceAlpha" result="0dropshadow"/>
<feOffset dx="1.316145" dy="1.579374"/>
<feGaussianBlur stdDeviation="1.18453"/>
<feComposite in2="hardAlpha" operator="out"/>
<feColorMatrix type="matrix" values="0 0 0 0 0.227451 0 0 0 0 0.341176 0 0 0 0 0.505882 0 0 0 0.15 0"/>
<feBlend mode="normal" in2="BackgroundImageFix" result="0dropshadow"/>
<feBlend mode="normal" in="SourceGraphic" in2="0dropshadow" result="shape"/>
</filter>
<linearGradient id="pf_0_32_749" x1="129.036" y1="98.253" x2="165" y2="138.21" gradientUnits="userSpaceOnUse">
<stop stop-color="#925FE2"/>
<stop offset="1" stop-color="#E2D4F7"/>
</linearGradient>
<filter id="filter32_750" x="87.105899" y="88.493892" width="44.035471" height="11.483837" filterUnits="userSpaceOnUse" color-interpolation-filters="sRGB">
<feFlood flood-opacity="0" result="BackgroundImageFix"/>
<feColorMatrix in="SourceAlpha" type="matrix" values="0 0 0 0 0 0 0 0 0 0 0 0 0 0 0 0 0 0 127 0" result="hardAlpha"/>
<feMorphology radius="0" operator="dilate" in="SourceAlpha" result="0dropshadow"/>
<feOffset dx="0" dy="0.789687"/>
<feGaussianBlur stdDeviation="1.052916"/>
<feComposite in2="hardAlpha" operator="out"/>
<feColorMatrix type="matrix" values="0 0 0 0 0.682353 0 0 0 0 0.784314 0 0 0 0 0.898039 0 0 0 0.5 0"/>
<feBlend mode="normal" in2="BackgroundImageFix" result="0dropshadow"/>
<feBlend mode="normal" in="SourceGraphic" in2="0dropshadow" result="shape"/>
</filter>
<linearGradient id="pf_0_32_750" x1="129.036" y1="90.6" x2="165" y2="118.047" gradientUnits="userSpaceOnUse">
<stop stop-color="#925FE2"/>
<stop offset="1" stop-color="#E2D4F7"/>
</linearGradient>
<filter id="filter32_751" x="-3.228436" y="88.230663" width="44.561929" height="19.15127" filterUnits="userSpaceOnUse" color-interpolation-filters="sRGB">
<feFlood flood-opacity="0" result="BackgroundImageFix"/>
<feColorMatrix in="SourceAlpha" type="matrix" values="0 0 0 0 0 0 0 0 0 0 0 0 0 0 0 0 0 0 127 0" result="hardAlpha"/>
<feMorphology radius="0" operator="dilate" in="SourceAlpha" result="0dropshadow"/>
<feOffset dx="1.316145" dy="1.579374"/>
<feGaussianBlur stdDeviation="1.18453"/>
<feComposite in2="hardAlpha" operator="out"/>
<feColorMatrix type="matrix" values="0 0 0 0 0.227451 0 0 0 0 0.341176 0 0 0 0 0.505882 0 0 0 0.15 0"/>
<feBlend mode="normal" in2="BackgroundImageFix" result="0dropshadow"/>
<feBlend mode="normal" in="SourceGraphic" in2="0dropshadow" result="shape"/>
</filter>
<linearGradient id="pf_0_32_752" x1="38.964" y1="98.253" x2="79" y2="130.865" gradientUnits="userSpaceOnUse">
<stop stop-color="#925FE2"/>
<stop offset="1" stop-color="#E2D4F7"/>
</linearGradient>
<filter id="filter32_753" x="-2.965207" y="88.493892" width="44.035471" height="11.483837" filterUnits="userSpaceOnUse" color-interpolation-filters="sRGB">
<feFlood flood-opacity="0" result="BackgroundImageFix"/>
<feColorMatrix in="SourceAlpha" type="matrix" values="0 0 0 0 0 0 0 0 0 0 0 0 0 0 0 0 0 0 127 0" result="hardAlpha"/>
<feMorphology radius="0" operator="dilate" in="SourceAlpha" result="0dropshadow"/>
<feOffset dx="0" dy="0.789687"/>
<feGaussianBlur stdDeviation="1.052916"/>
<feComposite in2="hardAlpha" operator="out"/>
<feColorMatrix type="matrix" values="0 0 0 0 0.682353 0 0 0 0 0.784314 0 0 0 0 0.898039 0 0 0 0.5 0"/>
<feBlend mode="normal" in2="BackgroundImageFix" result="0dropshadow"/>
<feBlend mode="normal" in="SourceGraphic" in2="0dropshadow" result="shape"/>
</filter>
<linearGradient id="pf_0_32_753" x1="38.964" y1="90.6" x2="79" y2="113.002" gradientUnits="userSpaceOnUse">
<stop stop-color="#925FE2"/>
<stop offset="1" stop-color="#E2D4F7"/>
</linearGradient>
<filter id="filter32_754" x="86.842609" y="65.202106" width="44.561936" height="19.151272" filterUnits="userSpaceOnUse" color-interpolation-filters="sRGB">
<feFlood flood-opacity="0" result="BackgroundImageFix"/>
<feColorMatrix in="SourceAlpha" type="matrix" values="0 0 0 0 0 0 0 0 0 0 0 0 0 0 0 0 0 0 127 0" result="hardAlpha"/>
<feMorphology radius="0" operator="dilate" in="SourceAlpha" result="0dropshadow"/>
<feOffset dx="1.316145" dy="1.579374"/>
<feGaussianBlur stdDeviation="1.18453"/>
<feComposite in2="hardAlpha" operator="out"/>
<feColorMatrix type="matrix" values="0 0 0 0 0.227451 0 0 0 0 0.341176 0 0 0 0 0.505882 0 0 0 0.15 0"/>
<feBlend mode="normal" in2="BackgroundImageFix" result="0dropshadow"/>
<feBlend mode="normal" in="SourceGraphic" in2="0dropshadow" result="shape"/>
</filter>
<linearGradient id="pf_0_32_755" x1="129.036" y1="75.224" x2="163" y2="126.22" gradientUnits="userSpaceOnUse">
<stop stop-color="#925FE2"/>
<stop offset="1" stop-color="#E2D4F7"/>
</linearGradient>
<filter id="filter32_756" x="87.105899" y="65.465335" width="44.035471" height="11.483837" filterUnits="userSpaceOnUse" color-interpolation-filters="sRGB">
<feFlood flood-opacity="0" result="BackgroundImageFix"/>
<feColorMatrix in="SourceAlpha" type="matrix" values="0 0 0 0 0 0 0 0 0 0 0 0 0 0 0 0 0 0 127 0" result="hardAlpha"/>
<feMorphology radius="0" operator="dilate" in="SourceAlpha" result="0dropshadow"/>
<feOffset dx="0" dy="0.789687"/>
<feGaussianBlur stdDeviation="1.052916"/>
<feComposite in2="hardAlpha" operator="out"/>
<feColorMatrix type="matrix" values="0 0 0 0 0.682353 0 0 0 0 0.784314 0 0 0 0 0.898039 0 0 0 0.5 0"/>
<feBlend mode="normal" in2="BackgroundImageFix" result="0dropshadow"/>
<feBlend mode="normal" in="SourceGraphic" in2="0dropshadow" result="shape"/>
</filter>
<linearGradient id="pf_0_32_756" x1="129.036" y1="67.571" x2="163" y2="102.602" gradientUnits="userSpaceOnUse">
<stop stop-color="#925FE2"/>
<stop offset="1" stop-color="#E2D4F7"/>
</linearGradient>
<filter id="filter32_757" x="-3.228436" y="65.202106" width="44.561929" height="19.15127" filterUnits="userSpaceOnUse" color-interpolation-filters="sRGB">
<feFlood flood-opacity="0" result="BackgroundImageFix"/>
<feColorMatrix in="SourceAlpha" type="matrix" values="0 0 0 0 0 0 0 0 0 0 0 0 0 0 0 0 0 0 127 0" result="hardAlpha"/>
<feMorphology radius="0" operator="dilate" in="SourceAlpha" result="0dropshadow"/>
<feOffset dx="1.316145" dy="1.579374"/>
<feGaussianBlur stdDeviation="1.18453"/>
<feComposite in2="hardAlpha" operator="out"/>
<feColorMatrix type="matrix" values="0 0 0 0 0.227451 0 0 0 0 0.341176 0 0 0 0 0.505882 0 0 0 0.15 0"/>
<feBlend mode="normal" in2="BackgroundImageFix" result="0dropshadow"/>
<feBlend mode="normal" in="SourceGraphic" in2="0dropshadow" result="shape"/>
</filter>
<filter id="filter32_759" x="-2.965207" y="65.465335" width="44.035471" height="11.483837" filterUnits="userSpaceOnUse" color-interpolation-filters="sRGB">
<feFlood flood-opacity="0" result="BackgroundImageFix"/>
<feColorMatrix in="SourceAlpha" type="matrix" values="0 0 0 0 0 0 0 0 0 0 0 0 0 0 0 0 0 0 127 0" result="hardAlpha"/>
<feMorphology radius="0" operator="dilate" in="SourceAlpha" result="0dropshadow"/>
<feOffset dx="0" dy="0.789687"/>
<feGaussianBlur stdDeviation="1.052916"/>
<feComposite in2="hardAlpha" operator="out"/>
<feColorMatrix type="matrix" values="0 0 0 0 0.682353 0 0 0 0 0.784314 0 0 0 0 0.898039 0 0 0 0.5 0"/>
<feBlend mode="normal" in2="BackgroundImageFix" result="0dropshadow"/>
<feBlend mode="normal" in="SourceGraphic" in2="0dropshadow" result="shape"/>
</filter>
<filter id="filter32_760" x="12.887641" y="68.228103" width="31.912812" height="12.174057" filterUnits="userSpaceOnUse" color-interpolation-filters="sRGB">
<feFlood flood-opacity="0" result="BackgroundImageFix"/>
<feBlend mode="normal" in="SourceGraphic" in2="BackgroundImageFix" result="shape"/>
<feGaussianBlur stdDeviation="2.63229" result="0foregroundblur"/>
</filter>
<filter id="filter32_761" x="86.807941" y="42.242877" width="44.561936" height="19.151258" filterUnits="userSpaceOnUse" color-interpolation-filters="sRGB">
<feFlood flood-opacity="0" result="BackgroundImageFix"/>
<feColorMatrix in="SourceAlpha" type="matrix" values="0 0 0 0 0 0 0 0 0 0 0 0 0 0 0 0 0 0 127 0" result="hardAlpha"/>
<feMorphology radius="0" operator="dilate" in="SourceAlpha" result="0dropshadow"/>
<feOffset dx="1.316145" dy="1.579374"/>
<feGaussianBlur stdDeviation="1.18453"/>
<feComposite in2="hardAlpha" operator="out"/>
<feColorMatrix type="matrix" values="0 0 0 0 0.227451 0 0 0 0 0.341176 0 0 0 0 0.505882 0 0 0 0.15 0"/>
<feBlend mode="normal" in2="BackgroundImageFix" result="0dropshadow"/>
<feBlend mode="normal" in="SourceGraphic" in2="0dropshadow" result="shape"/>
</filter>
<linearGradient id="pf_0_32_762" x1="129.001" y1="52.265" x2="168" y2="95.886" gradientUnits="userSpaceOnUse">
<stop stop-color="#925FE2"/>
<stop offset="1" stop-color="#E2D4F7"/>
</linearGradient>
<filter id="filter32_763" x="87.071231" y="42.506106" width="44.035471" height="11.483837" filterUnits="userSpaceOnUse" color-interpolation-filters="sRGB">
<feFlood flood-opacity="0" result="BackgroundImageFix"/>
<feColorMatrix in="SourceAlpha" type="matrix" values="0 0 0 0 0 0 0 0 0 0 0 0 0 0 0 0 0 0 127 0" result="hardAlpha"/>
<feMorphology radius="0" operator="dilate" in="SourceAlpha" result="0dropshadow"/>
<feOffset dx="0" dy="0.789687"/>
<feGaussianBlur stdDeviation="1.052916"/>
<feComposite in2="hardAlpha" operator="out"/>
<feColorMatrix type="matrix" values="0 0 0 0 0.682353 0 0 0 0 0.784314 0 0 0 0 0.898039 0 0 0 0.5 0"/>
<feBlend mode="normal" in2="BackgroundImageFix" result="0dropshadow"/>
<feBlend mode="normal" in="SourceGraphic" in2="0dropshadow" result="shape"/>
</filter>
<linearGradient id="pf_0_32_763" x1="129.001" y1="44.612" x2="168" y2="74.576" gradientUnits="userSpaceOnUse">
<stop stop-color="#925FE2"/>
<stop offset="1" stop-color="#E2D4F7"/>
</linearGradient>
<filter id="filter32_764" x="86.807941" y="19.352863" width="44.561936" height="19.151264" filterUnits="userSpaceOnUse" color-interpolation-filters="sRGB">
<feFlood flood-opacity="0" result="BackgroundImageFix"/>
<feColorMatrix in="SourceAlpha" type="matrix" values="0 0 0 0 0 0 0 0 0 0 0 0 0 0 0 0 0 0 127 0" result="hardAlpha"/>
<feMorphology radius="0" operator="dilate" in="SourceAlpha" result="0dropshadow"/>
<feOffset dx="1.316145" dy="1.579374"/>
<feGaussianBlur stdDeviation="1.18453"/>
<feComposite in2="hardAlpha" operator="out"/>
<feColorMatrix type="matrix" values="0 0 0 0 0.227451 0 0 0 0 0.341176 0 0 0 0 0.505882 0 0 0 0.15 0"/>
<feBlend mode="normal" in2="BackgroundImageFix" result="0dropshadow"/>
<feBlend mode="normal" in="SourceGraphic" in2="0dropshadow" result="shape"/>
</filter>
<linearGradient id="pf_0_32_765" x1="129.001" y1="29.375" x2="158" y2="73.65" gradientUnits="userSpaceOnUse">
<stop stop-color="#925FE2"/>
<stop offset="1" stop-color="#E2D4F7"/>
</linearGradient>
<filter id="filter32_766" x="87.071231" y="19.616092" width="44.035471" height="11.483837" filterUnits="userSpaceOnUse" color-interpolation-filters="sRGB">
<feFlood flood-opacity="0" result="BackgroundImageFix"/>
<feColorMatrix in="SourceAlpha" type="matrix" values="0 0 0 0 0 0 0 0 0 0 0 0 0 0 0 0 0 0 127 0" result="hardAlpha"/>
<feMorphology radius="0" operator="dilate" in="SourceAlpha" result="0dropshadow"/>
<feOffset dx="0" dy="0.789687"/>
<feGaussianBlur stdDeviation="1.052916"/>
<feComposite in2="hardAlpha" operator="out"/>
<feColorMatrix type="matrix" values="0 0 0 0 0.682353 0 0 0 0 0.784314 0 0 0 0 0.898039 0 0 0 0.5 0"/>
<feBlend mode="normal" in2="BackgroundImageFix" result="0dropshadow"/>
<feBlend mode="normal" in="SourceGraphic" in2="0dropshadow" result="shape"/>
</filter>
<linearGradient id="pf_0_32_766" x1="129.001" y1="21.722" x2="158" y2="52.135" gradientUnits="userSpaceOnUse">
<stop stop-color="#925FE2"/>
<stop offset="1" stop-color="#E2D4F7"/>
</linearGradient>
<filter id="filter32_767" x="75.630939" y="-1.795086" width="44.561936" height="19.151264" filterUnits="userSpaceOnUse" color-interpolation-filters="sRGB">
<feFlood flood-opacity="0" result="BackgroundImageFix"/>
<feColorMatrix in="SourceAlpha" type="matrix" values="0 0 0 0 0 0 0 0 0 0 0 0 0 0 0 0 0 0 127 0" result="hardAlpha"/>
<feMorphology radius="0" operator="dilate" in="SourceAlpha" result="0dropshadow"/>
<feOffset dx="1.316145" dy="1.579374"/>
<feGaussianBlur stdDeviation="1.18453"/>
<feComposite in2="hardAlpha" operator="out"/>
<feColorMatrix type="matrix" values="0 0 0 0 0.227451 0 0 0 0 0.341176 0 0 0 0 0.505882 0 0 0 0.15 0"/>
<feBlend mode="normal" in2="BackgroundImageFix" result="0dropshadow"/>
<feBlend mode="normal" in="SourceGraphic" in2="0dropshadow" result="shape"/>
</filter>
<linearGradient id="pf_0_32_768" x1="117.824" y1="8.227" x2="134" y2="67.301" gradientUnits="userSpaceOnUse">
<stop stop-color="#925FE2"/>
<stop offset="1" stop-color="#E2D4F7"/>
</linearGradient>
<filter id="filter32_769" x="75.894229" y="-1.531857" width="44.035471" height="11.483837" filterUnits="userSpaceOnUse" color-interpolation-filters="sRGB">
<feFlood flood-opacity="0" result="BackgroundImageFix"/>
<feColorMatrix in="SourceAlpha" type="matrix" values="0 0 0 0 0 0 0 0 0 0 0 0 0 0 0 0 0 0 127 0" result="hardAlpha"/>
<feMorphology radius="0" operator="dilate" in="SourceAlpha" result="0dropshadow"/>
<feOffset dx="0" dy="0.789687"/>
<feGaussianBlur stdDeviation="1.052916"/>
<feComposite in2="hardAlpha" operator="out"/>
<feColorMatrix type="matrix" values="0 0 0 0 0.682353 0 0 0 0 0.784314 0 0 0 0 0.898039 0 0 0 0.5 0"/>
<feBlend mode="normal" in2="BackgroundImageFix" result="0dropshadow"/>
<feBlend mode="normal" in="SourceGraphic" in2="0dropshadow" result="shape"/>
</filter>
<linearGradient id="pf_0_32_769" x1="117.824" y1="0.574" x2="134" y2="41.153" gradientUnits="userSpaceOnUse">
<stop stop-color="#925FE2"/>
<stop offset="1" stop-color="#E2D4F7"/>
</linearGradient>
</defs>
</svg>
