<svg width="108" height="112" viewBox="0 0 108 112" fill="none" xmlns="http://www.w3.org/2000/svg" xmlns:xlink="http://www.w3.org/1999/xlink">
<path d="M106.454,51.203L99.506,44.255C99.345,44.094 99.154,43.966 98.943,43.879C98.732,43.792 98.506,43.747 98.278,43.747C98.05,43.747 97.824,43.792 97.613,43.879C97.403,43.966 97.211,44.094 97.05,44.255L90.102,51.203C89.941,51.365 89.813,51.556 89.725,51.767C89.638,51.977 89.593,52.203 89.593,52.431L89.593,69.801C89.593,70.029 89.638,70.255 89.725,70.466C89.813,70.677 89.941,70.868 90.102,71.03C90.263,71.191 90.455,71.319 90.665,71.406C90.876,71.493 91.102,71.538 91.33,71.538L105.226,71.538C105.454,71.538 105.68,71.493 105.891,71.406C106.102,71.319 106.293,71.191 106.454,71.03C106.616,70.868 106.744,70.677 106.831,70.466C106.918,70.255 106.963,70.029 106.963,69.801L106.963,52.431C106.963,52.203 106.918,51.977 106.831,51.767C106.743,51.556 106.615,51.365 106.454,51.203Z" fill="#FFFFFF"/>
<path d="M75.697,29.851L23.588,29.851C23.36,29.851 23.134,29.896 22.923,29.983C22.713,30.07 22.521,30.198 22.36,30.359C22.198,30.521 22.07,30.712 21.983,30.923C21.896,31.134 21.851,31.36 21.851,31.588L21.851,57.642C21.851,57.973 21.945,58.297 22.123,58.576C22.3,58.854 22.554,59.077 22.854,59.217L48.908,71.375C49.138,71.483 49.389,71.538 49.643,71.538C49.896,71.538 50.147,71.483 50.377,71.375L76.432,59.217C76.731,59.077 76.985,58.854 77.163,58.576C77.34,58.297 77.434,57.973 77.434,57.642L77.434,31.588C77.434,31.36 77.39,31.134 77.302,30.923C77.215,30.712 77.087,30.521 76.926,30.359C76.764,30.198 76.573,30.07 76.362,29.983C76.151,29.896 75.925,29.851 75.697,29.851Z" fill="#FFFFFF"/>
<path d="M75.697,29.851L23.588,29.851C23.36,29.851 23.134,29.896 22.923,29.983C22.713,30.07 22.521,30.198 22.36,30.359C22.198,30.521 22.07,30.712 21.983,30.923C21.896,31.134 21.851,31.36 21.851,31.588L21.851,48.327L48.908,60.954C49.138,61.061 49.389,61.116 49.643,61.116C49.896,61.116 50.147,61.061 50.377,60.954L77.434,48.327L77.434,31.588C77.434,31.36 77.39,31.134 77.302,30.923C77.215,30.712 77.087,30.521 76.926,30.359C76.764,30.198 76.573,30.07 76.362,29.983C76.151,29.896 75.925,29.851 75.697,29.851Z" fill="#FFFFFF"/>
<path d="M99.01,23.064L50.374,0.483C50.145,0.378 49.895,0.323 49.643,0.323C49.391,0.323 49.141,0.378 48.912,0.483L0.276,23.064C-0.024,23.203 -0.278,23.426 -0.457,23.705C-0.635,23.984 -0.729,24.309 -0.729,24.64C-0.729,24.971 -0.635,25.295 -0.457,25.575C-0.278,25.854 -0.024,26.076 0.276,26.216L48.912,48.796C49.141,48.903 49.39,48.958 49.643,48.958C49.896,48.958 50.145,48.903 50.374,48.796L99.01,26.216C99.31,26.076 99.564,25.854 99.742,25.575C99.921,25.295 100.015,24.971 100.015,24.64C100.015,24.309 99.921,23.984 99.742,23.705C99.564,23.426 99.31,23.203 99.01,23.064Z" fill="#FFFFFF"/>
<path d="M98.278,40.273C98.05,40.273 97.824,40.228 97.613,40.141C97.403,40.053 97.211,39.925 97.05,39.764C96.889,39.603 96.761,39.411 96.673,39.2C96.586,38.99 96.541,38.764 96.541,38.536L96.541,26.377L49.643,26.377C49.182,26.377 48.74,26.194 48.415,25.868C48.089,25.542 47.906,25.1 47.906,24.64C47.906,24.179 48.089,23.737 48.415,23.412C48.74,23.086 49.182,22.903 49.643,22.903L98.278,22.903C98.506,22.903 98.732,22.948 98.943,23.035C99.154,23.122 99.345,23.25 99.507,23.411C99.668,23.573 99.796,23.764 99.883,23.975C99.97,24.186 100.015,24.412 100.015,24.64L100.015,38.536C100.015,38.764 99.97,38.99 99.883,39.2C99.796,39.411 99.668,39.603 99.507,39.764C99.345,39.925 99.154,40.053 98.943,40.141C98.732,40.228 98.506,40.273 98.278,40.273Z" fill="#FFFFFF"/>
<circle cx="98.278" cy="43.747" r="6.948" fill="#FFFFFF"/>
<path d="M83.988,104.48C81.661,103.845 79.171,98.134 79.171,90.645C79.171,83.156 81.661,77.445 83.988,76.81C84.415,76.694 84.782,76.418 85.013,76.04C85.244,75.662 85.322,75.21 85.23,74.776C85.139,74.343 84.886,73.96 84.522,73.707C84.158,73.455 83.711,73.35 83.273,73.416L49.643,78.468L16.001,73.414L15.15,73.292C15.068,73.281 14.986,73.275 14.903,73.275C9.952,73.275 6.218,80.742 6.218,90.645C6.218,100.548 9.952,108.015 14.903,108.015C14.986,108.015 15.068,108.009 15.15,107.998L49.643,102.823L83.273,107.874C83.711,107.94 84.158,107.836 84.522,107.583C84.886,107.33 85.139,106.948 85.23,106.514C85.322,106.08 85.244,105.628 85.013,105.25C84.782,104.872 84.415,104.596 83.988,104.48Z" fill="#FFFFFF"/>
<path d="M56.591,75.012L42.695,75.012C41.774,75.013 40.891,75.38 40.24,76.031C39.589,76.682 39.222,77.565 39.221,78.486L39.221,109.752C39.221,110.036 39.291,110.315 39.424,110.566C39.557,110.817 39.749,111.031 39.985,111.19C40.22,111.349 40.49,111.449 40.772,111.479C41.055,111.509 41.34,111.47 41.604,111.365L49.643,108.149L57.683,111.365C57.946,111.47 58.232,111.509 58.514,111.479C58.796,111.449 59.067,111.349 59.302,111.19C59.537,111.031 59.729,110.817 59.862,110.566C59.995,110.315 60.065,110.036 60.065,109.752L60.065,78.486C60.064,77.565 59.698,76.682 59.046,76.031C58.395,75.38 57.512,75.013 56.591,75.012Z" fill="#FFFFFF"/>
<path d="M84.383,73.275C84.3,73.275 84.218,73.281 84.136,73.292L83.284,73.414C83.213,73.425 83.143,73.439 83.074,73.458C78.731,74.644 75.698,81.711 75.698,90.645C75.698,99.579 78.731,106.646 83.074,107.832C83.143,107.851 83.213,107.865 83.284,107.876L84.136,107.998C84.218,108.009 84.3,108.015 84.383,108.015C89.334,108.015 93.068,100.548 93.068,90.645C93.068,80.742 89.334,73.275 84.383,73.275Z" fill="#FFFFFF"/>
<path d="M80.909,88.908L75.738,88.908C75.713,89.479 75.698,90.057 75.698,90.645C75.698,99.579 78.731,106.646 83.074,107.832C83.143,107.851 83.213,107.865 83.284,107.876L84.136,107.998C84.218,108.009 84.3,108.015 84.383,108.015C84.976,108.013 85.565,107.903 86.12,107.691L86.12,94.119C86.118,92.737 85.569,91.413 84.592,90.436C83.615,89.459 82.29,88.91 80.909,88.908Z" fill="#FFFFFF"/>
</svg>
