<svg width="166" height="172" viewBox="0 0 166 172" fill="none" xmlns="http://www.w3.org/2000/svg" xmlns:xlink="http://www.w3.org/1999/xlink">
<path d="M163.885,78.78L153.219,68.113C152.971,67.866 152.677,67.669 152.354,67.535C152.03,67.401 151.683,67.332 151.333,67.332C150.983,67.332 150.636,67.401 150.313,67.535C149.989,67.669 149.695,67.866 149.448,68.113L138.781,78.78C138.533,79.028 138.337,79.322 138.203,79.645C138.069,79.968 138,80.315 138,80.665L138,107.332C138,107.682 138.069,108.029 138.203,108.353C138.337,108.676 138.533,108.97 138.781,109.218C139.028,109.466 139.322,109.662 139.646,109.796C139.97,109.93 140.316,109.999 140.667,109.999L162,109.999C162.35,109.999 162.697,109.93 163.021,109.796C163.344,109.662 163.638,109.466 163.886,109.218C164.133,108.97 164.33,108.676 164.464,108.353C164.598,108.029 164.667,107.682 164.667,107.332L164.667,80.665C164.667,80.315 164.598,79.968 164.464,79.645C164.33,79.321 164.133,79.028 163.885,78.78Z" fill="#FFFFFF"/>
<path d="M116.667,45.999L36.667,45.999C36.316,45.999 35.97,46.068 35.646,46.202C35.322,46.336 35.028,46.532 34.781,46.78C34.533,47.027 34.337,47.321 34.203,47.645C34.069,47.968 34,48.315 34,48.665L34,88.665C34,89.173 34.145,89.67 34.417,90.098C34.69,90.526 35.079,90.868 35.539,91.082L75.539,109.749C75.892,109.913 76.277,109.999 76.667,109.999C77.056,109.999 77.441,109.913 77.794,109.749L117.794,91.082C118.254,90.868 118.643,90.526 118.916,90.098C119.189,89.67 119.333,89.173 119.333,88.665L119.333,48.665C119.333,48.315 119.265,47.968 119.131,47.645C118.997,47.321 118.8,47.027 118.552,46.78C118.305,46.532 118.011,46.336 117.687,46.202C117.364,46.068 117.017,45.999 116.667,45.999Z" fill="#FFFFFF"/>
<path d="M116.667,45.999L36.667,45.999C36.316,45.999 35.97,46.068 35.646,46.202C35.322,46.336 35.028,46.532 34.781,46.78C34.533,47.027 34.337,47.321 34.203,47.645C34.069,47.968 34,48.315 34,48.665L34,74.365L75.539,93.749C75.892,93.914 76.277,93.999 76.667,93.999C77.056,93.999 77.441,93.914 77.794,93.749L119.333,74.365L119.333,48.665C119.333,48.315 119.265,47.968 119.131,47.645C118.997,47.321 118.8,47.027 118.552,46.78C118.305,46.532 118.011,46.336 117.687,46.202C117.364,46.068 117.017,45.999 116.667,45.999Z" fill="#FFFFFF"/>
<path d="M152.456,35.58L77.789,0.913C77.437,0.751 77.054,0.667 76.667,0.667C76.279,0.667 75.896,0.751 75.544,0.913L0.878,35.58C0.416,35.794 0.026,36.135 -0.248,36.564C-0.521,36.992 -0.667,37.49 -0.667,37.999C-0.667,38.507 -0.521,39.005 -0.248,39.434C0.026,39.863 0.416,40.204 0.878,40.418L75.544,75.085C75.896,75.248 76.279,75.332 76.667,75.332C77.054,75.332 77.437,75.248 77.789,75.085L152.456,40.418C152.917,40.204 153.308,39.863 153.581,39.434C153.855,39.005 154,38.507 154,37.999C154,37.49 153.855,36.992 153.581,36.564C153.308,36.135 152.917,35.794 152.456,35.58Z" fill="#FFFFFF"/>
<path d="M151.333,61.999C150.983,61.999 150.636,61.93 150.313,61.796C149.989,61.662 149.695,61.466 149.448,61.218C149.2,60.97 149.003,60.676 148.869,60.353C148.735,60.029 148.667,59.682 148.667,59.332L148.667,40.665L76.667,40.665C75.959,40.665 75.281,40.385 74.781,39.884C74.281,39.384 74,38.706 74,37.999C74,37.292 74.281,36.613 74.781,36.113C75.281,35.613 75.959,35.332 76.667,35.332L151.333,35.332C151.684,35.332 152.03,35.401 152.354,35.535C152.678,35.669 152.972,35.865 153.219,36.113C153.467,36.361 153.663,36.655 153.797,36.978C153.931,37.302 154,37.649 154,37.999L154,59.332C154,59.682 153.931,60.029 153.797,60.353C153.663,60.676 153.467,60.97 153.219,61.218C152.972,61.466 152.678,61.662 152.354,61.796C152.03,61.93 151.684,61.999 151.333,61.999Z" fill="#FFFFFF"/>
<circle cx="151.333" cy="67.332" r="10.667" fill="#FFFFFF"/>
<path d="M129.395,160.572C125.823,159.598 122,150.829 122,139.332C122,127.835 125.823,119.066 129.395,118.093C130.051,117.913 130.614,117.49 130.968,116.91C131.323,116.329 131.442,115.635 131.302,114.97C131.162,114.304 130.773,113.717 130.214,113.329C129.656,112.941 128.97,112.781 128.297,112.882L76.667,120.637L25.02,112.879L23.712,112.691C23.587,112.674 23.46,112.665 23.333,112.665C15.732,112.665 10,124.129 10,139.332C10,154.535 15.732,165.999 23.333,165.999C23.46,165.999 23.587,165.99 23.712,165.973L76.667,158.027L128.297,165.783C128.97,165.884 129.655,165.723 130.214,165.335C130.773,164.947 131.162,164.36 131.302,163.695C131.442,163.029 131.323,162.335 130.968,161.755C130.614,161.174 130.051,160.751 129.395,160.572Z" fill="#FFFFFF"/>
<path d="M87.333,115.332L66,115.332C64.586,115.334 63.23,115.896 62.231,116.896C61.231,117.896 60.668,119.251 60.667,120.665L60.667,168.666C60.667,169.101 60.774,169.531 60.978,169.916C61.182,170.3 61.478,170.63 61.839,170.874C62.199,171.118 62.615,171.27 63.048,171.317C63.481,171.364 63.919,171.304 64.324,171.142L76.667,166.205L89.009,171.142C89.414,171.304 89.852,171.364 90.285,171.317C90.719,171.27 91.134,171.118 91.495,170.874C91.856,170.63 92.151,170.3 92.355,169.916C92.56,169.531 92.667,169.101 92.667,168.666L92.667,120.665C92.665,119.251 92.103,117.896 91.103,116.896C90.103,115.896 88.747,115.334 87.333,115.332Z" fill="#FFFFFF"/>
<path d="M130,112.665C129.873,112.665 129.747,112.674 129.621,112.691L128.314,112.879C128.205,112.895 128.097,112.918 127.991,112.947C121.323,114.767 116.667,125.616 116.667,139.332C116.667,153.048 121.323,163.897 127.991,165.718C128.097,165.747 128.205,165.769 128.314,165.785L129.621,165.973C129.747,165.99 129.873,165.999 130,165.999C137.602,165.999 143.333,154.535 143.333,139.332C143.333,124.129 137.602,112.665 130,112.665Z" fill="#FFFFFF"/>
<path d="M124.667,136.665L116.729,136.665C116.689,137.541 116.667,138.43 116.667,139.332C116.667,153.048 121.323,163.897 127.991,165.717C128.097,165.747 128.205,165.769 128.314,165.785L129.621,165.973C129.747,165.99 129.873,165.999 130,165.999C130.912,165.995 131.815,165.827 132.667,165.502L132.667,144.665C132.664,142.544 131.821,140.511 130.321,139.011C128.821,137.511 126.788,136.668 124.667,136.665Z" fill="#FFFFFF"/>
</svg>
