<svg width="200" height="192" viewBox="0 0 200 192" fill="none" xmlns="http://www.w3.org/2000/svg" xmlns:xlink="http://www.w3.org/1999/xlink">
<g filter="url(#filter32_784)">
<path d="M119.713,170.827C149.557,177.976 167.097,177.229 199.36,170.827L199.36,185.482C199.36,186.225 198.831,186.871 198.103,187.026C167.211,193.604 149.927,193.706 120.942,187.041C120.227,186.877 119.713,186.237 119.713,185.504L119.713,170.827Z" fill="url(#pf_0_32_785)" stroke="url(#ps_0_32_785)" stroke-width="0.132" stroke-miterlimit="3.999327"/>
<g filter="url(#filter32_786)">
<path d="M199.36,170.446C199.36,174.462 181.53,177.718 159.536,177.718C137.542,177.718 119.713,174.462 119.713,170.446C119.713,166.43 137.542,163.174 159.536,163.174C181.53,163.174 199.36,166.43 199.36,170.446Z" fill="url(#pf_0_32_786)" stroke="#FFFFFF" stroke-opacity="0.2" stroke-width="0.132" stroke-miterlimit="3.999327"/>
</g>
</g>
<g filter="url(#filter32_787)">
<path d="M29.641,170.827C59.486,177.976 77.026,177.229 109.289,170.827L109.289,185.482C109.289,186.225 108.759,186.871 108.032,187.026C77.14,193.604 59.855,193.706 30.871,187.041C30.156,186.877 29.641,186.237 29.641,185.504L29.641,170.827Z" fill="url(#pf_0_32_788)" stroke="url(#ps_0_32_788)" stroke-width="0.132" stroke-miterlimit="3.999327"/>
<g filter="url(#filter32_789)">
<path d="M109.289,170.446C109.289,174.462 91.459,177.718 69.465,177.718C47.471,177.718 29.641,174.462 29.641,170.446C29.641,166.43 47.471,163.174 69.465,163.174C91.459,163.174 109.289,166.43 109.289,170.446Z" fill="url(#pf_0_32_789)" stroke="#FFFFFF" stroke-opacity="0.2" stroke-width="0.132" stroke-miterlimit="3.999327"/>
</g>
</g>
<g filter="url(#filter32_790)">
<path d="M119.713,147.798C149.557,154.948 167.097,154.201 199.36,147.798L199.36,162.453C199.36,163.197 198.831,163.842 198.103,163.997C167.211,170.575 149.927,170.678 120.942,164.013C120.227,163.848 119.713,163.209 119.713,162.475L119.713,147.798Z" fill="url(#pf_0_32_791)" stroke="url(#ps_0_32_791)" stroke-width="0.132" stroke-miterlimit="3.999327"/>
<g filter="url(#filter32_792)">
<path d="M199.36,147.417C199.36,151.434 181.53,154.689 159.536,154.689C137.542,154.689 119.713,151.434 119.713,147.417C119.713,143.401 137.542,140.145 159.536,140.145C181.53,140.145 199.36,143.401 199.36,147.417Z" fill="url(#pf_0_32_792)" stroke="#FFFFFF" stroke-opacity="0.2" stroke-width="0.132" stroke-miterlimit="3.999327"/>
</g>
</g>
<g filter="url(#filter32_793)">
<path d="M29.641,147.798C59.486,154.948 77.026,154.201 109.289,147.798L109.289,162.453C109.289,163.197 108.759,163.842 108.032,163.997C77.14,170.575 59.855,170.678 30.871,164.013C30.156,163.848 29.641,163.209 29.641,162.475L29.641,147.798Z" fill="url(#pf_0_32_794)" stroke="url(#ps_0_32_794)" stroke-width="0.132" stroke-miterlimit="3.999327"/>
<g filter="url(#filter32_795)">
<path d="M109.289,147.417C109.289,151.434 91.459,154.689 69.465,154.689C47.471,154.689 29.641,151.434 29.641,147.417C29.641,143.401 47.471,140.145 69.465,140.145C91.459,140.145 109.289,143.401 109.289,147.417Z" fill="url(#pf_0_32_795)" stroke="#FFFFFF" stroke-opacity="0.2" stroke-width="0.132" stroke-miterlimit="3.999327"/>
</g>
<g filter="url(#filter32_796)">
<path d="M91.42,147.712C91.42,148.62 81.847,149.356 70.037,149.356C58.227,149.356 48.653,148.62 48.653,147.712C48.653,146.803 58.227,146.067 70.037,146.067C81.847,146.067 91.42,146.803 91.42,147.712Z" fill="#925FE2"/>
</g>
</g>
<g filter="url(#filter32_797)">
<path d="M119.678,124.839C149.523,131.988 167.063,131.241 199.326,124.839L199.326,139.494C199.326,140.238 198.796,140.883 198.069,141.038C167.177,147.616 149.892,147.719 120.908,141.054C120.193,140.889 119.678,140.25 119.678,139.516L119.678,124.839Z" fill="url(#pf_0_32_798)" stroke="url(#ps_0_32_798)" stroke-width="0.132" stroke-miterlimit="3.999327"/>
<g filter="url(#filter32_799)">
<path d="M199.326,124.458C199.326,128.474 181.496,131.73 159.502,131.73C137.508,131.73 119.678,128.474 119.678,124.458C119.678,120.442 137.508,117.186 159.502,117.186C181.496,117.186 199.326,120.442 199.326,124.458Z" fill="url(#pf_0_32_799)" stroke="#FFFFFF" stroke-opacity="0.2" stroke-width="0.132" stroke-miterlimit="3.999327"/>
</g>
</g>
<g filter="url(#filter32_800)">
<path d="M119.678,101.949C149.523,109.098 167.063,108.351 199.326,101.949L199.326,116.604C199.326,117.348 198.796,117.993 198.069,118.148C167.177,124.726 149.892,124.829 120.908,118.164C120.193,117.999 119.678,117.36 119.678,116.626L119.678,101.949Z" fill="url(#pf_0_32_801)" stroke="url(#ps_0_32_801)" stroke-width="0.132" stroke-miterlimit="3.999327"/>
<g filter="url(#filter32_802)">
<path d="M199.326,101.568C199.326,105.584 181.496,108.84 159.502,108.84C137.508,108.84 119.678,105.584 119.678,101.568C119.678,97.552 137.508,94.296 159.502,94.296C181.496,94.296 199.326,97.552 199.326,101.568Z" fill="url(#pf_0_32_802)" stroke="#FFFFFF" stroke-opacity="0.2" stroke-width="0.132" stroke-miterlimit="3.999327"/>
</g>
</g>
<g filter="url(#filter32_804)">
<path d="M25.373,39.74C16.698,41.979 10.382,41.951 0.542,40.312C-0.103,40.205 -0.694,40.7 -0.694,41.354L-0.694,121.889C-0.694,122.431 -0.283,122.884 0.257,122.934C8.685,123.713 15.264,123.629 25.874,123.076C28.697,122.929 31.517,122.546 34.267,121.894C60.545,115.667 75.626,107.745 96.855,88.906C99.904,86.2 103.381,83.926 107.327,82.902C114.359,81.077 120.243,81.283 129.473,84.1C130.501,84.414 131.556,83.655 131.556,82.58L131.556,2.113C131.556,1.281 130.9,0.59 130.069,0.539C104.833,-1.03 94.149,0.752 75.471,6.865C57.735,13.315 48.949,19.717 33.615,34.878C31.31,37.158 28.512,38.929 25.373,39.74Z" fill="url(#pf_0_32_804)" stroke="url(#ps_0_32_804)" stroke-width="0.263" stroke-miterlimit="3.999327"/>
</g>
<g filter="url(#filter32_805)">
<circle cx="116.323" cy="65.374" r="5.193" fill="url(#pf_0_32_805)"/>
</g>
<g filter="url(#filter32_806)">
<circle cx="13.847" cy="57.065" r="5.193" fill="url(#pf_0_32_806)"/>
</g>
<g filter="url(#filter32_807)">
<circle cx="65.085" cy="61.219" r="23.196" fill="url(#pf_0_32_807)"/>
</g>
<g filter="url(#filter32_808)">
<path d="M57.77,50.205C58.637,49.214 59.451,48.363 60.404,47.437C61.471,46.401 63.159,46.4 64.265,47.395C65.124,48.168 65.27,49.476 64.548,50.378C64.091,50.947 63.656,51.44 63.169,51.918C62.247,52.822 61.623,54.012 61.623,55.303L61.623,55.455C61.623,56.635 62.342,57.704 63.45,58.111C63.644,58.182 63.833,58.25 64.017,58.315C66.732,59.273 69.62,60.064 71.706,62.048C71.975,62.304 72.23,62.568 72.477,62.849C73.647,64.177 74.086,65.968 74.086,67.738C74.086,69.802 73.487,71.859 72.111,73.397C71.189,74.428 70.267,75.26 69.133,76.113C68.041,76.934 66.504,76.687 65.639,75.63C64.745,74.537 64.86,72.937 65.901,71.983L67.175,70.815C67.843,70.202 68.353,69.406 68.429,68.503C68.433,68.452 68.437,68.401 68.44,68.35C68.542,66.697 67.286,65.334 65.781,64.644C63.789,63.73 62.075,62.865 60.127,61.794C57.568,60.387 55.843,57.932 55.93,55.013C55.98,53.305 56.644,51.492 57.77,50.205Z" fill="url(#pf_0_32_809)" stroke="#FFFFFF" stroke-opacity="0.33" stroke-width="0.132" stroke-miterlimit="3.999327"/>
<rect  x="67.508" y="42.178" width="5.276" height="12.2" rx="3.027" fill="url(#pf_0_32_810)" stroke="#FFFFFF" stroke-opacity="0.33" stroke-width="0.132" stroke-miterlimit="3.999327"/>
<rect  x="57.122" y="68.49" width="5.276" height="12.2" rx="3.027" fill="url(#pf_0_32_811)" stroke="#FFFFFF" stroke-opacity="0.33" stroke-width="0.132" stroke-miterlimit="3.999327"/>
</g>
<defs>
<filter id="filter32_784" x="117.343463" y="160.804645" width="44.561936" height="19.151267" filterUnits="userSpaceOnUse" color-interpolation-filters="sRGB">
<feFlood flood-opacity="0" result="BackgroundImageFix"/>
<feColorMatrix in="SourceAlpha" type="matrix" values="0 0 0 0 0 0 0 0 0 0 0 0 0 0 0 0 0 0 127 0" result="hardAlpha"/>
<feMorphology radius="0" operator="dilate" in="SourceAlpha" result="0dropshadow"/>
<feOffset dx="1.316145" dy="1.579374"/>
<feGaussianBlur stdDeviation="1.18453"/>
<feComposite in2="hardAlpha" operator="out"/>
<feColorMatrix type="matrix" values="0 0 0 0 0.227451 0 0 0 0 0.341176 0 0 0 0 0.505882 0 0 0 0.15 0"/>
<feBlend mode="normal" in2="BackgroundImageFix" result="0dropshadow"/>
<feBlend mode="normal" in="SourceGraphic" in2="0dropshadow" result="shape"/>
</filter>
<linearGradient id="pf_0_32_785" x1="159.536" y1="170.827" x2="188.333" y2="219.177" gradientUnits="userSpaceOnUse">
<stop stop-color="#925FE2"/>
<stop offset="1" stop-color="#E2D4F7"/>
</linearGradient>
<filter id="filter32_786" x="117.606692" y="161.067874" width="44.035471" height="11.483837" filterUnits="userSpaceOnUse" color-interpolation-filters="sRGB">
<feFlood flood-opacity="0" result="BackgroundImageFix"/>
<feColorMatrix in="SourceAlpha" type="matrix" values="0 0 0 0 0 0 0 0 0 0 0 0 0 0 0 0 0 0 127 0" result="hardAlpha"/>
<feMorphology radius="0" operator="dilate" in="SourceAlpha" result="0dropshadow"/>
<feOffset dx="0" dy="0.789687"/>
<feGaussianBlur stdDeviation="1.052916"/>
<feComposite in2="hardAlpha" operator="out"/>
<feColorMatrix type="matrix" values="0 0 0 0 0.682353 0 0 0 0 0.784314 0 0 0 0 0.898039 0 0 0 0.5 0"/>
<feBlend mode="normal" in2="BackgroundImageFix" result="0dropshadow"/>
<feBlend mode="normal" in="SourceGraphic" in2="0dropshadow" result="shape"/>
</filter>
<linearGradient id="pf_0_32_786" x1="159.536" y1="163.174" x2="188.333" y2="196.386" gradientUnits="userSpaceOnUse">
<stop stop-color="#925FE2"/>
<stop offset="1" stop-color="#E2D4F7"/>
</linearGradient>
<filter id="filter32_787" x="27.272418" y="160.804645" width="44.561929" height="19.15127" filterUnits="userSpaceOnUse" color-interpolation-filters="sRGB">
<feFlood flood-opacity="0" result="BackgroundImageFix"/>
<feColorMatrix in="SourceAlpha" type="matrix" values="0 0 0 0 0 0 0 0 0 0 0 0 0 0 0 0 0 0 127 0" result="hardAlpha"/>
<feMorphology radius="0" operator="dilate" in="SourceAlpha" result="0dropshadow"/>
<feOffset dx="1.316145" dy="1.579374"/>
<feGaussianBlur stdDeviation="1.18453"/>
<feComposite in2="hardAlpha" operator="out"/>
<feColorMatrix type="matrix" values="0 0 0 0 0.227451 0 0 0 0 0.341176 0 0 0 0 0.505882 0 0 0 0.15 0"/>
<feBlend mode="normal" in2="BackgroundImageFix" result="0dropshadow"/>
<feBlend mode="normal" in="SourceGraphic" in2="0dropshadow" result="shape"/>
</filter>
<linearGradient id="pf_0_32_788" x1="69.465" y1="170.827" x2="92.333" y2="212.566" gradientUnits="userSpaceOnUse">
<stop stop-color="#925FE2"/>
<stop offset="1" stop-color="#E2D4F7"/>
</linearGradient>
<filter id="filter32_789" x="27.535647" y="161.067874" width="44.035471" height="11.483837" filterUnits="userSpaceOnUse" color-interpolation-filters="sRGB">
<feFlood flood-opacity="0" result="BackgroundImageFix"/>
<feColorMatrix in="SourceAlpha" type="matrix" values="0 0 0 0 0 0 0 0 0 0 0 0 0 0 0 0 0 0 127 0" result="hardAlpha"/>
<feMorphology radius="0" operator="dilate" in="SourceAlpha" result="0dropshadow"/>
<feOffset dx="0" dy="0.789687"/>
<feGaussianBlur stdDeviation="1.052916"/>
<feComposite in2="hardAlpha" operator="out"/>
<feColorMatrix type="matrix" values="0 0 0 0 0.682353 0 0 0 0 0.784314 0 0 0 0 0.898039 0 0 0 0.5 0"/>
<feBlend mode="normal" in2="BackgroundImageFix" result="0dropshadow"/>
<feBlend mode="normal" in="SourceGraphic" in2="0dropshadow" result="shape"/>
</filter>
<linearGradient id="pf_0_32_789" x1="69.465" y1="163.174" x2="92.333" y2="191.845" gradientUnits="userSpaceOnUse">
<stop stop-color="#925FE2"/>
<stop offset="1" stop-color="#E2D4F7"/>
</linearGradient>
<filter id="filter32_790" x="117.343463" y="137.776096" width="44.561936" height="19.151272" filterUnits="userSpaceOnUse" color-interpolation-filters="sRGB">
<feFlood flood-opacity="0" result="BackgroundImageFix"/>
<feColorMatrix in="SourceAlpha" type="matrix" values="0 0 0 0 0 0 0 0 0 0 0 0 0 0 0 0 0 0 127 0" result="hardAlpha"/>
<feMorphology radius="0" operator="dilate" in="SourceAlpha" result="0dropshadow"/>
<feOffset dx="1.316145" dy="1.579374"/>
<feGaussianBlur stdDeviation="1.18453"/>
<feComposite in2="hardAlpha" operator="out"/>
<feColorMatrix type="matrix" values="0 0 0 0 0.227451 0 0 0 0 0.341176 0 0 0 0 0.505882 0 0 0 0.15 0"/>
<feBlend mode="normal" in2="BackgroundImageFix" result="0dropshadow"/>
<feBlend mode="normal" in="SourceGraphic" in2="0dropshadow" result="shape"/>
</filter>
<linearGradient id="pf_0_32_791" x1="159.536" y1="147.798" x2="199.333" y2="173.399" gradientUnits="userSpaceOnUse">
<stop stop-color="#925FE2"/>
<stop offset="1" stop-color="#E2D4F7"/>
</linearGradient>
<filter id="filter32_792" x="117.606692" y="138.039325" width="44.035471" height="11.483837" filterUnits="userSpaceOnUse" color-interpolation-filters="sRGB">
<feFlood flood-opacity="0" result="BackgroundImageFix"/>
<feColorMatrix in="SourceAlpha" type="matrix" values="0 0 0 0 0 0 0 0 0 0 0 0 0 0 0 0 0 0 127 0" result="hardAlpha"/>
<feMorphology radius="0" operator="dilate" in="SourceAlpha" result="0dropshadow"/>
<feOffset dx="0" dy="0.789687"/>
<feGaussianBlur stdDeviation="1.052916"/>
<feComposite in2="hardAlpha" operator="out"/>
<feColorMatrix type="matrix" values="0 0 0 0 0.682353 0 0 0 0 0.784314 0 0 0 0 0.898039 0 0 0 0.5 0"/>
<feBlend mode="normal" in2="BackgroundImageFix" result="0dropshadow"/>
<feBlend mode="normal" in="SourceGraphic" in2="0dropshadow" result="shape"/>
</filter>
<linearGradient id="pf_0_32_792" x1="159.536" y1="140.145" x2="199.333" y2="157.731" gradientUnits="userSpaceOnUse">
<stop stop-color="#925FE2"/>
<stop offset="1" stop-color="#E2D4F7"/>
</linearGradient>
<filter id="filter32_793" x="27.272418" y="137.776096" width="44.561929" height="19.15127" filterUnits="userSpaceOnUse" color-interpolation-filters="sRGB">
<feFlood flood-opacity="0" result="BackgroundImageFix"/>
<feColorMatrix in="SourceAlpha" type="matrix" values="0 0 0 0 0 0 0 0 0 0 0 0 0 0 0 0 0 0 127 0" result="hardAlpha"/>
<feMorphology radius="0" operator="dilate" in="SourceAlpha" result="0dropshadow"/>
<feOffset dx="1.316145" dy="1.579374"/>
<feGaussianBlur stdDeviation="1.18453"/>
<feComposite in2="hardAlpha" operator="out"/>
<feColorMatrix type="matrix" values="0 0 0 0 0.227451 0 0 0 0 0.341176 0 0 0 0 0.505882 0 0 0 0.15 0"/>
<feBlend mode="normal" in2="BackgroundImageFix" result="0dropshadow"/>
<feBlend mode="normal" in="SourceGraphic" in2="0dropshadow" result="shape"/>
</filter>
<linearGradient id="pf_0_32_794" x1="69.465" y1="147.798" x2="69.465" y2="168.971" gradientUnits="userSpaceOnUse">
<stop stop-color="#925FE2"/>
<stop offset="1" stop-color="#925FE2"/>
</linearGradient>
<filter id="filter32_795" x="27.535647" y="138.039325" width="44.035471" height="11.483837" filterUnits="userSpaceOnUse" color-interpolation-filters="sRGB">
<feFlood flood-opacity="0" result="BackgroundImageFix"/>
<feColorMatrix in="SourceAlpha" type="matrix" values="0 0 0 0 0 0 0 0 0 0 0 0 0 0 0 0 0 0 127 0" result="hardAlpha"/>
<feMorphology radius="0" operator="dilate" in="SourceAlpha" result="0dropshadow"/>
<feOffset dx="0" dy="0.789687"/>
<feGaussianBlur stdDeviation="1.052916"/>
<feComposite in2="hardAlpha" operator="out"/>
<feColorMatrix type="matrix" values="0 0 0 0 0.682353 0 0 0 0 0.784314 0 0 0 0 0.898039 0 0 0 0.5 0"/>
<feBlend mode="normal" in2="BackgroundImageFix" result="0dropshadow"/>
<feBlend mode="normal" in="SourceGraphic" in2="0dropshadow" result="shape"/>
</filter>
<linearGradient id="pf_0_32_795" x1="69.465" y1="140.145" x2="69.465" y2="154.69" gradientUnits="userSpaceOnUse">
<stop stop-color="#925FE2"/>
<stop offset="1" stop-color="#925FE2"/>
</linearGradient>
<filter id="filter32_796" x="43.388496" y="140.802093" width="31.912812" height="12.174057" filterUnits="userSpaceOnUse" color-interpolation-filters="sRGB">
<feFlood flood-opacity="0" result="BackgroundImageFix"/>
<feBlend mode="normal" in="SourceGraphic" in2="BackgroundImageFix" result="shape"/>
<feGaussianBlur stdDeviation="2.63229" result="0foregroundblur"/>
</filter>
<filter id="filter32_797" x="117.308918" y="114.816822" width="44.561936" height="19.151258" filterUnits="userSpaceOnUse" color-interpolation-filters="sRGB">
<feFlood flood-opacity="0" result="BackgroundImageFix"/>
<feColorMatrix in="SourceAlpha" type="matrix" values="0 0 0 0 0 0 0 0 0 0 0 0 0 0 0 0 0 0 127 0" result="hardAlpha"/>
<feMorphology radius="0" operator="dilate" in="SourceAlpha" result="0dropshadow"/>
<feOffset dx="1.316145" dy="1.579374"/>
<feGaussianBlur stdDeviation="1.18453"/>
<feComposite in2="hardAlpha" operator="out"/>
<feColorMatrix type="matrix" values="0 0 0 0 0.227451 0 0 0 0 0.341176 0 0 0 0 0.505882 0 0 0 0.15 0"/>
<feBlend mode="normal" in2="BackgroundImageFix" result="0dropshadow"/>
<feBlend mode="normal" in="SourceGraphic" in2="0dropshadow" result="shape"/>
</filter>
<linearGradient id="pf_0_32_798" x1="159.502" y1="124.839" x2="211.333" y2="157.021" gradientUnits="userSpaceOnUse">
<stop stop-color="#925FE2"/>
<stop offset="1" stop-color="#E2D4F7"/>
</linearGradient>
<filter id="filter32_799" x="117.572146" y="115.08005" width="44.035471" height="11.483837" filterUnits="userSpaceOnUse" color-interpolation-filters="sRGB">
<feFlood flood-opacity="0" result="BackgroundImageFix"/>
<feColorMatrix in="SourceAlpha" type="matrix" values="0 0 0 0 0 0 0 0 0 0 0 0 0 0 0 0 0 0 127 0" result="hardAlpha"/>
<feMorphology radius="0" operator="dilate" in="SourceAlpha" result="0dropshadow"/>
<feOffset dx="0" dy="0.789687"/>
<feGaussianBlur stdDeviation="1.052916"/>
<feComposite in2="hardAlpha" operator="out"/>
<feColorMatrix type="matrix" values="0 0 0 0 0.682353 0 0 0 0 0.784314 0 0 0 0 0.898039 0 0 0 0.5 0"/>
<feBlend mode="normal" in2="BackgroundImageFix" result="0dropshadow"/>
<feBlend mode="normal" in="SourceGraphic" in2="0dropshadow" result="shape"/>
</filter>
<linearGradient id="pf_0_32_799" x1="159.502" y1="117.186" x2="211.333" y2="139.292" gradientUnits="userSpaceOnUse">
<stop stop-color="#925FE2"/>
<stop offset="1" stop-color="#E2D4F7"/>
</linearGradient>
<filter id="filter32_800" x="117.308918" y="91.926822" width="44.561936" height="19.151264" filterUnits="userSpaceOnUse" color-interpolation-filters="sRGB">
<feFlood flood-opacity="0" result="BackgroundImageFix"/>
<feColorMatrix in="SourceAlpha" type="matrix" values="0 0 0 0 0 0 0 0 0 0 0 0 0 0 0 0 0 0 127 0" result="hardAlpha"/>
<feMorphology radius="0" operator="dilate" in="SourceAlpha" result="0dropshadow"/>
<feOffset dx="1.316145" dy="1.579374"/>
<feGaussianBlur stdDeviation="1.18453"/>
<feComposite in2="hardAlpha" operator="out"/>
<feColorMatrix type="matrix" values="0 0 0 0 0.227451 0 0 0 0 0.341176 0 0 0 0 0.505882 0 0 0 0.15 0"/>
<feBlend mode="normal" in2="BackgroundImageFix" result="0dropshadow"/>
<feBlend mode="normal" in="SourceGraphic" in2="0dropshadow" result="shape"/>
</filter>
<linearGradient id="pf_0_32_801" x1="159.502" y1="101.949" x2="206.333" y2="137.723" gradientUnits="userSpaceOnUse">
<stop stop-color="#925FE2"/>
<stop offset="1" stop-color="#E2D4F7"/>
</linearGradient>
<filter id="filter32_802" x="117.572146" y="92.190051" width="44.035471" height="11.483837" filterUnits="userSpaceOnUse" color-interpolation-filters="sRGB">
<feFlood flood-opacity="0" result="BackgroundImageFix"/>
<feColorMatrix in="SourceAlpha" type="matrix" values="0 0 0 0 0 0 0 0 0 0 0 0 0 0 0 0 0 0 127 0" result="hardAlpha"/>
<feMorphology radius="0" operator="dilate" in="SourceAlpha" result="0dropshadow"/>
<feOffset dx="0" dy="0.789687"/>
<feGaussianBlur stdDeviation="1.052916"/>
<feComposite in2="hardAlpha" operator="out"/>
<feColorMatrix type="matrix" values="0 0 0 0 0.682353 0 0 0 0 0.784314 0 0 0 0 0.898039 0 0 0 0.5 0"/>
<feBlend mode="normal" in2="BackgroundImageFix" result="0dropshadow"/>
<feBlend mode="normal" in="SourceGraphic" in2="0dropshadow" result="shape"/>
</filter>
<linearGradient id="pf_0_32_802" x1="159.502" y1="94.296" x2="206.333" y2="118.87" gradientUnits="userSpaceOnUse">
<stop stop-color="#925FE2"/>
<stop offset="1" stop-color="#E2D4F7"/>
</linearGradient>
<filter id="filter32_804" x="-16.487467" y="-15.793741" width="97.712315" height="93.339748" filterUnits="userSpaceOnUse" color-interpolation-filters="sRGB">
<feFlood flood-opacity="0" result="BackgroundImageFix"/>
<feColorMatrix in="SourceAlpha" type="matrix" values="0 0 0 0 0 0 0 0 0 0 0 0 0 0 0 0 0 0 127 0" result="hardAlpha"/>
<feMorphology radius="0" operator="dilate" in="SourceAlpha" result="0dropshadow"/>
<feOffset dx="2.895519" dy="3.685206"/>
<feGaussianBlur stdDeviation="7.896871"/>
<feComposite in2="hardAlpha" operator="out"/>
<feColorMatrix type="matrix" values="0 0 0 0 0.384314 0 0 0 0 0.466667 0 0 0 0 0.580392 0 0 0 0.25 0"/>
<feBlend mode="normal" in2="BackgroundImageFix" result="0dropshadow"/>
<feBlend mode="normal" in="SourceGraphic" in2="0dropshadow" result="shape"/>
</filter>
<linearGradient id="pf_0_32_804" x1="-0.694" y1="41.544" x2="197.333" y2="124" gradientUnits="userSpaceOnUse">
<stop stop-color="#925FE2"/>
<stop offset="1" stop-color="#E2D4F7"/>
</linearGradient>
<filter id="filter32_805" x="110.076967" y="59.127748" width="7.298882" height="7.298882" filterUnits="userSpaceOnUse" color-interpolation-filters="sRGB">
<feFlood flood-opacity="0" result="BackgroundImageFix"/>
<feColorMatrix in="SourceAlpha" type="matrix" values="0 0 0 0 0 0 0 0 0 0 0 0 0 0 0 0 0 0 127 0" result="hardAlpha"/>
<feMorphology radius="0" operator="dilate" in="SourceAlpha" result="0dropshadow"/>
<feOffset dx="0" dy="0.526458"/>
<feGaussianBlur stdDeviation="0.526458"/>
<feComposite in2="hardAlpha" operator="out"/>
<feColorMatrix type="matrix" values="0 0 0 0 0 0 0 0 0 0 0 0 0 0 0 0 0 0 0.05 0"/>
<feBlend mode="normal" in2="BackgroundImageFix" result="0dropshadow"/>
<feBlend mode="normal" in="SourceGraphic" in2="0dropshadow" result="shape"/>
</filter>
<linearGradient id="pf_0_32_805" x1="116.323" y1="60.181" x2="116.323" y2="70.567" gradientUnits="userSpaceOnUse">
<stop offset="0.156" stop-color="#925FE2"/>
<stop offset="1" stop-color="#F1F1F1"/>
</linearGradient>
<filter id="filter32_806" x="7.60077" y="50.81888" width="7.298882" height="7.298882" filterUnits="userSpaceOnUse" color-interpolation-filters="sRGB">
<feFlood flood-opacity="0" result="BackgroundImageFix"/>
<feColorMatrix in="SourceAlpha" type="matrix" values="0 0 0 0 0 0 0 0 0 0 0 0 0 0 0 0 0 0 127 0" result="hardAlpha"/>
<feMorphology radius="0" operator="dilate" in="SourceAlpha" result="0dropshadow"/>
<feOffset dx="0" dy="0.526458"/>
<feGaussianBlur stdDeviation="0.526458"/>
<feComposite in2="hardAlpha" operator="out"/>
<feColorMatrix type="matrix" values="0 0 0 0 0 0 0 0 0 0 0 0 0 0 0 0 0 0 0.05 0"/>
<feBlend mode="normal" in2="BackgroundImageFix" result="0dropshadow"/>
<feBlend mode="normal" in="SourceGraphic" in2="0dropshadow" result="shape"/>
</filter>
<linearGradient id="pf_0_32_806" x1="13.847" y1="51.872" x2="13.847" y2="62.258" gradientUnits="userSpaceOnUse">
<stop offset="0.182" stop-color="#925FE2"/>
<stop offset="1" stop-color="#F1F1F1"/>
</linearGradient>
<filter id="filter32_807" x="38.203954" y="34.338475" width="30.566032" height="30.566032" filterUnits="userSpaceOnUse" color-interpolation-filters="sRGB">
<feFlood flood-opacity="0" result="BackgroundImageFix"/>
<feColorMatrix in="SourceAlpha" type="matrix" values="0 0 0 0 0 0 0 0 0 0 0 0 0 0 0 0 0 0 127 0" result="hardAlpha"/>
<feMorphology radius="0" operator="dilate" in="SourceAlpha" result="0dropshadow"/>
<feOffset dx="-2.63229" dy="-1.052916"/>
<feGaussianBlur stdDeviation="1.316145"/>
<feComposite in2="hardAlpha" operator="out"/>
<feColorMatrix type="matrix" values="0 0 0 0 1 0 0 0 0 1 0 0 0 0 1 0 0 0 0.5 0"/>
<feBlend mode="normal" in2="BackgroundImageFix" result="0dropshadow"/>
<feColorMatrix in="SourceAlpha" type="matrix" values="0 0 0 0 0 0 0 0 0 0 0 0 0 0 0 0 0 0 127 0" result="hardAlpha"/>
<feMorphology radius="0" operator="dilate" in="SourceAlpha" result="1dropshadow"/>
<feOffset dx="0.526458" dy="1.052916"/>
<feGaussianBlur stdDeviation="1.842603"/>
<feComposite in2="hardAlpha" operator="out"/>
<feColorMatrix type="matrix" values="0 0 0 0 0.34902 0 0 0 0 0.462745 0 0 0 0 0.623529 0 0 0 0.25 0"/>
<feBlend mode="normal" in2="0dropshadow" result="1dropshadow"/>
<feBlend mode="normal" in="SourceGraphic" in2="1dropshadow" result="shape"/>
</filter>
<linearGradient id="pf_0_32_807" x1="65.085" y1="38.024" x2="65.085" y2="84.415" gradientUnits="userSpaceOnUse">
<stop stop-color="#E4EBF7" stop-opacity="0.5"/>
<stop offset="1" stop-color="#D9E4F4"/>
</linearGradient>
<filter id="filter32_808" x="54.334322" y="40.598696" width="12.244991" height="22.546133" filterUnits="userSpaceOnUse" color-interpolation-filters="sRGB">
<feFlood flood-opacity="0" result="BackgroundImageFix"/>
<feColorMatrix in="SourceAlpha" type="matrix" values="0 0 0 0 0 0 0 0 0 0 0 0 0 0 0 0 0 0 127 0" result="hardAlpha"/>
<feMorphology radius="0" operator="dilate" in="SourceAlpha" result="0dropshadow"/>
<feOffset dx="0" dy="1.052916"/>
<feGaussianBlur stdDeviation="0.789687"/>
<feComposite in2="hardAlpha" operator="out"/>
<feColorMatrix type="matrix" values="0 0 0 0 0 0 0 0 0 0 0 0 0 0 0 0 0 0 0.05 0"/>
<feBlend mode="normal" in2="BackgroundImageFix" result="0dropshadow"/>
<feBlend mode="normal" in="SourceGraphic" in2="0dropshadow" result="shape"/>
</filter>
<linearGradient id="pf_0_32_809" x1="65" y1="45.64" x2="65" y2="77.491" gradientUnits="userSpaceOnUse">
<stop stop-color="#925FE2"/>
<stop offset="1" stop-color="#925FE2"/>
</linearGradient>
<linearGradient id="pf_0_32_810" x1="70.278" y1="42.178" x2="70.278" y2="54.641" gradientUnits="userSpaceOnUse">
<stop stop-color="#925FE2"/>
<stop offset="1" stop-color="#925FE2"/>
</linearGradient>
<linearGradient id="pf_0_32_811" x1="59.892" y1="68.49" x2="59.892" y2="80.953" gradientUnits="userSpaceOnUse">
<stop stop-color="#925FE2"/>
<stop offset="1" stop-color="#925FE2"/>
</linearGradient>
</defs>
</svg>
