<svg width="122" height="96" viewBox="0 0 122 96" fill="none" xmlns="http://www.w3.org/2000/svg" xmlns:xlink="http://www.w3.org/1999/xlink">
<g opacity="0.5" filter="url(#filter36_200)">
<path d="M3.655,81.079L3.578,6.041C3.578,4.42 4.099,3.679 5.35,2.254C6.601,0.83 7.955,0.633 9.345,0.597C10.457,0.568 12.964,0.585 14.078,0.597L79.893,0.597C88.303,0.619 106.244,0.661 110.725,0.661C116.326,0.661 116.841,5.439 116.875,6.782C116.91,8.125 117.072,15.398 117.072,16.984C117.072,18.57 117.003,30.162 116.98,31.771C116.956,33.381 116.968,47.242 116.98,49.373C116.987,50.784 116.895,56.907 116.83,61.274C116.796,63.501 116.77,65.271 116.767,65.729C116.758,67.085 116.639,72.676 116.618,73.312C116.596,73.947 116.495,79.809 116.495,80.307C116.495,80.804 116.812,81.012 117.409,81.012C119.326,81.012 120.197,82.604 120.393,83.4C120.435,84.946 120.52,88.276 120.52,89.223C120.52,90.377 119.783,90.699 119.401,90.865L119.371,90.878C119.089,91.003 118.696,91.232 118.28,91.474C118.151,91.549 118.019,91.626 117.888,91.701C117.669,91.827 117.108,92.191 116.425,92.635L116.424,92.635C115.386,93.309 114.065,94.166 113.235,94.647C112.115,95.296 110.998,95.272 110.077,95.252C109.865,95.247 109.663,95.243 109.474,95.247C108.784,95.262 63.447,95.131 34.246,95.047L34.044,95.046C20.637,95.008 10.678,94.979 10.095,94.979C8.615,94.979 7.306,94.295 6.836,93.953C5.347,93.109 2.153,91.316 1.293,90.896C0.432,90.477 0.329,89.699 0.385,89.363C0.411,88.029 0.462,84.924 0.462,83.178C0.462,81.432 2.591,81.051 3.655,81.079ZM14.197,59.561L14.197,14.795C14.197,14.509 14.197,14.326 14.29,13.564C14.38,12.828 14.901,12.816 15.305,12.817C14.902,12.817 14.388,12.833 14.299,13.564C14.205,14.326 14.205,14.509 14.205,14.795L14.205,59.561C14.185,60.067 14.246,61.173 14.659,61.546C15.174,62.011 15.386,62.153 16.752,62.153C16.751,62.153 16.75,62.153 16.748,62.153C15.378,62.153 15.166,62.012 14.651,61.546C14.238,61.173 14.176,60.067 14.197,59.561ZM52.968,62.045C53.158,62.045 53.271,62.046 53.299,62.046C53.317,62.047 53.377,62.047 53.476,62.048C53.382,62.047 53.325,62.047 53.307,62.046C53.279,62.046 53.163,62.045 52.968,62.045ZM93.601,62.097C94.316,62.097 97.22,62.163 99.652,62.218C101.303,62.256 102.736,62.289 103.12,62.292C103.131,62.293 103.142,62.293 103.153,62.293C103.145,62.293 103.137,62.293 103.129,62.292C102.745,62.289 101.311,62.256 99.66,62.218C97.228,62.163 94.325,62.097 93.61,62.097C93.607,62.097 93.604,62.097 93.601,62.097ZM104.606,12.817C104.605,12.817 104.604,12.817 104.603,12.817C104.275,12.817 102.859,12.817 100.695,12.818L100.689,12.818C100.694,12.818 100.699,12.818 100.703,12.818C102.855,12.817 104.268,12.817 104.606,12.817ZM41.239,12.815C40.315,12.816 39.374,12.817 38.427,12.818L38.426,12.818C33.101,12.823 27.585,12.828 23.852,12.827C21.617,12.827 20.022,12.823 19.493,12.817C18.6,12.805 17.887,12.801 17.319,12.801C16.557,12.801 16.054,12.808 15.723,12.813C15.563,12.815 15.442,12.817 15.353,12.817C15.347,12.817 15.34,12.817 15.334,12.817Z" clip-rule="evenodd" fill-rule="evenodd" transform="rotate(-1.119 60.446 47.92)" fill="#925FE2"/>
</g>
<defs>
<filter id="filter36_200" x="-12.290348" y="-12.206394" width="84.93947" height="72.329675" filterUnits="userSpaceOnUse" color-interpolation-filters="sRGB">
<feFlood flood-opacity="0" result="BackgroundImageFix"/>
<feBlend mode="normal" in="SourceGraphic" in2="BackgroundImageFix" result="shape"/>
<feGaussianBlur stdDeviation="6.101564" result="0foregroundblur"/>
</filter>
</defs>
</svg>
