<svg width="186" height="148" viewBox="0 0 186 148" fill="none" xmlns="http://www.w3.org/2000/svg" xmlns:xlink="http://www.w3.org/1999/xlink">
<g opacity="0.5" filter="url(#filter32_835)">
<path d="M5.909,124.526L5.79,9.325C5.79,6.837 6.59,5.699 8.51,3.512C10.43,1.325 12.51,1.023 14.644,0.968C16.35,0.924 20.199,0.949 21.911,0.968L122.951,0.968C135.863,1.001 163.406,1.066 170.285,1.066C178.884,1.066 179.674,8.401 179.728,10.463C179.781,12.525 180.03,23.69 180.03,26.125C180.03,28.561 179.923,46.356 179.888,48.828C179.852,51.299 179.87,72.579 179.888,75.85C179.9,78.016 179.758,87.416 179.658,94.122C179.606,97.539 179.566,100.257 179.561,100.96C179.547,103.043 179.365,111.626 179.332,112.602C179.3,113.577 179.144,122.577 179.144,123.341C179.144,124.104 179.63,124.424 180.547,124.424C183.49,124.424 184.827,126.867 185.128,128.089C185.193,130.463 185.323,135.575 185.323,137.03C185.323,138.801 184.191,139.295 183.606,139.55L183.559,139.571C183.125,139.761 182.522,140.113 181.885,140.485C181.686,140.601 181.484,140.719 181.283,140.834C180.946,141.027 180.085,141.586 179.036,142.267L179.035,142.268C177.441,143.302 175.413,144.618 174.139,145.357C172.42,146.352 170.705,146.315 169.291,146.285C168.965,146.278 168.655,146.271 168.365,146.277C167.306,146.3 97.703,146.1 52.872,145.97L52.562,145.97C31.979,145.91 16.69,145.866 15.796,145.866C13.523,145.866 11.513,144.816 10.792,144.291C8.506,142.995 3.603,140.243 2.281,139.598C0.96,138.954 0.802,137.761 0.888,137.244C0.927,135.196 1.006,130.429 1.006,127.748C1.006,125.068 4.275,124.484 5.909,124.526ZM22.093,91.492L22.093,22.765C22.093,22.325 22.093,22.045 22.236,20.875C22.374,19.746 23.173,19.727 23.794,19.727C23.175,19.728 22.386,19.753 22.249,20.875C22.105,22.045 22.105,22.325 22.105,22.765L22.105,91.492C22.074,92.269 22.169,93.966 22.802,94.538C23.593,95.253 23.918,95.47 26.016,95.47C26.014,95.47 26.011,95.47 26.009,95.47C23.906,95.47 23.58,95.254 22.789,94.538C22.156,93.966 22.061,92.269 22.093,91.492ZM81.616,95.305C81.907,95.305 82.08,95.305 82.123,95.306C82.151,95.307 82.243,95.308 82.395,95.309C82.25,95.308 82.163,95.307 82.135,95.306C82.092,95.305 81.915,95.305 81.616,95.305ZM143.997,95.384C145.094,95.384 149.552,95.485 153.285,95.571C155.82,95.629 158.021,95.679 158.611,95.685C158.627,95.685 158.644,95.685 158.66,95.685C158.648,95.685 158.636,95.685 158.623,95.685C158.034,95.679 155.833,95.629 153.298,95.571C149.564,95.485 145.107,95.384 144.009,95.384C144.005,95.384 144.001,95.384 143.997,95.384ZM160.892,19.728C160.89,19.728 160.889,19.728 160.888,19.728C160.384,19.728 158.209,19.729 154.887,19.73L154.877,19.73C154.885,19.73 154.893,19.73 154.9,19.73C158.203,19.729 160.372,19.728 160.892,19.728ZM63.609,19.726C62.19,19.727 60.746,19.728 59.291,19.73L59.289,19.73C51.115,19.738 42.647,19.746 36.916,19.744C33.484,19.743 31.036,19.738 30.223,19.728C28.852,19.71 27.758,19.704 26.886,19.704C25.716,19.704 24.944,19.715 24.436,19.722C24.189,19.725 24.005,19.727 23.867,19.728C23.858,19.728 23.848,19.728 23.838,19.727Z" clip-rule="evenodd" fill-rule="evenodd" transform="rotate(-1.119 93.096 73.62)" fill="#925FE2"/>
</g>
<defs>
<filter id="filter32_835" x="-18.57155" y="-18.68858" width="130.401817" height="111.042861" filterUnits="userSpaceOnUse" color-interpolation-filters="sRGB">
<feFlood flood-opacity="0" result="BackgroundImageFix"/>
<feBlend mode="normal" in="SourceGraphic" in2="BackgroundImageFix" result="shape"/>
<feGaussianBlur stdDeviation="9.367318" result="0foregroundblur"/>
</filter>
</defs>
</svg>
