<svg width="34" height="32" viewBox="0 0 34 32" fill="none" xmlns="http://www.w3.org/2000/svg" xmlns:xlink="http://www.w3.org/1999/xlink">
<path d="M23.335,17.815C23.097,18.061 22.966,18.39 22.969,18.731C22.972,19.073 23.109,19.4 23.35,19.641C23.592,19.883 23.919,20.02 24.26,20.023C24.602,20.026 24.931,19.894 25.177,19.657L28.972,15.862L29.029,15.802C29.167,15.68 29.278,15.53 29.353,15.362C29.429,15.194 29.468,15.012 29.468,14.828C29.468,14.644 29.429,14.461 29.353,14.293C29.278,14.125 29.167,13.975 29.029,13.853C29.01,13.833 28.991,13.813 28.972,13.794L25.177,9.999C25.056,9.874 24.913,9.775 24.754,9.707C24.595,9.638 24.424,9.602 24.251,9.601C24.078,9.599 23.906,9.632 23.746,9.698C23.586,9.763 23.441,9.86 23.318,9.982C23.196,10.105 23.099,10.25 23.034,10.41C22.968,10.57 22.935,10.742 22.937,10.915C22.938,11.088 22.974,11.259 23.043,11.418C23.111,11.577 23.21,11.721 23.335,11.841L25.019,13.525L17.742,13.525C17.396,13.525 17.065,13.662 16.821,13.907C16.576,14.151 16.439,14.482 16.439,14.828C16.439,15.173 16.576,15.505 16.821,15.749C17.065,15.993 17.396,16.131 17.742,16.131L25.019,16.131L23.335,17.815Z" clip-rule="evenodd" fill-rule="evenodd" fill="#FFFFFF" fill-opacity="0.75"/>
<path d="M7.32,1.801C6.283,1.801 5.289,2.212 4.556,2.945C3.823,3.678 3.411,4.672 3.411,5.709L3.411,23.947C3.411,24.984 3.823,25.978 4.556,26.711C5.289,27.444 6.283,27.855 7.32,27.855L19.696,27.855C20.559,27.855 21.388,27.512 21.999,26.901C22.609,26.291 22.953,25.462 22.953,24.598L22.953,20.994C22.354,20.648 21.917,20.079 21.738,19.411C21.559,18.744 21.653,18.032 21.998,17.434L17.742,17.434C17.051,17.434 16.388,17.159 15.899,16.67C15.411,16.182 15.136,15.519 15.136,14.828C15.136,14.137 15.411,13.474 15.899,12.986C16.388,12.497 17.051,12.223 17.742,12.223L21.998,12.223C21.826,11.926 21.715,11.599 21.671,11.259C21.626,10.92 21.649,10.575 21.737,10.244C21.826,9.914 21.979,9.604 22.187,9.332C22.396,9.061 22.656,8.833 22.953,8.662L22.953,5.058C22.953,4.194 22.609,3.365 21.999,2.755C21.388,2.144 20.559,1.801 19.696,1.801L7.32,1.801Z" clip-rule="evenodd" fill-rule="evenodd" fill="#FFFFFF" fill-opacity="0.75"/>
</svg>
