<svg width="48" height="48" viewBox="0 0 48 48" fill="none" xmlns="http://www.w3.org/2000/svg" xmlns:xlink="http://www.w3.org/1999/xlink">
<path d="M34.586,28.586C34.222,28.963 34.02,29.468 34.025,29.993C34.029,30.517 34.24,31.019 34.61,31.39C34.981,31.76 35.483,31.971 36.007,31.975C36.532,31.98 37.037,31.778 37.414,31.414L43.24,25.588L43.328,25.496C43.54,25.309 43.71,25.078 43.826,24.821C43.942,24.563 44.003,24.283 44.003,24C44.003,23.717 43.942,23.437 43.826,23.179C43.71,22.922 43.54,22.691 43.328,22.504C43.3,22.472 43.27,22.442 43.24,22.412L37.414,16.586C37.23,16.395 37.009,16.243 36.765,16.138C36.521,16.033 36.258,15.978 35.993,15.975C35.727,15.973 35.464,16.024 35.218,16.124C34.972,16.225 34.749,16.373 34.561,16.561C34.373,16.749 34.225,16.972 34.124,17.218C34.024,17.464 33.973,17.727 33.976,17.993C33.978,18.258 34.033,18.521 34.138,18.765C34.243,19.009 34.395,19.229 34.586,19.414L37.172,22L26,22C25.47,22 24.961,22.211 24.586,22.586C24.211,22.961 24,23.47 24,24C24,24.53 24.211,25.039 24.586,25.414C24.961,25.789 25.47,26 26,26L37.172,26L34.586,28.586Z" clip-rule="evenodd" fill-rule="evenodd" fill="#FFFFFF" fill-opacity="0.75"/>
<path d="M10,4C8.409,4 6.883,4.632 5.757,5.757C4.632,6.883 4,8.409 4,10L4,38C4,39.591 4.632,41.117 5.757,42.243C6.883,43.368 8.409,44 10,44L29,44C30.326,44 31.598,43.473 32.536,42.536C33.473,41.598 34,40.326 34,39L34,33.466C33.081,32.935 32.411,32.061 32.136,31.036C31.861,30.011 32.004,28.919 32.534,28L26,28C24.939,28 23.922,27.579 23.172,26.828C22.421,26.078 22,25.061 22,24C22,22.939 22.421,21.922 23.172,21.172C23.922,20.421 24.939,20 26,20L32.534,20C32.271,19.545 32.101,19.042 32.032,18.521C31.963,18 31.998,17.471 32.134,16.963C32.27,16.456 32.505,15.98 32.825,15.563C33.146,15.146 33.545,14.796 34,14.534L34,9C34,7.674 33.473,6.402 32.536,5.464C31.598,4.527 30.326,4 29,4L10,4Z" clip-rule="evenodd" fill-rule="evenodd" fill="#FFFFFF" fill-opacity="0.75"/>
</svg>
